<svg width="3116" height="2275" xmlns="http://www.w3.org/2000/svg" xmlns:xlink="http://www.w3.org/1999/xlink" xml:space="preserve" overflow="hidden"><defs><clipPath id="clip0"><rect x="602" y="85" width="3116" height="2275"/></clipPath></defs><g clip-path="url(#clip0)" transform="translate(-602 -85)"><rect x="1804" y="1040" width="792" height="396" stroke="#000000" stroke-width="27.5" stroke-miterlimit="8" fill="none"/><text font-family="Consolas,Consolas_MSFontService,sans-serif" font-weight="700" font-size="275" transform="matrix(1 0 0 1 1973.12 1332)">PIX</text><rect x="1804" y="248" width="792" height="396" stroke="#000000" stroke-width="27.5" stroke-miterlimit="8" fill="none"/><text font-family="Consolas,Consolas_MSFontService,sans-serif" font-weight="700" font-size="275" transform="matrix(1 0 0 1 1897.5 540)">VRAM</text><rect x="1804" y="1832" width="792" height="396" stroke="#000000" stroke-width="27.5" stroke-miterlimit="8" fill="none"/><text font-family="Consolas,Consolas_MSFontService,sans-serif" font-weight="700" font-size="275" transform="matrix(1 0 0 1 1973.12 2124)">ROM</text><rect x="616" y="1040" width="792" height="396" stroke="#000000" stroke-width="27.5" stroke-miterlimit="8" fill="none"/><text font-family="Consolas,Consolas_MSFontService,sans-serif" font-weight="700" font-size="275" transform="matrix(1 0 0 1 785.125 1332)">VGA</text><path d="M2078.81 644.5 2078.81 1020.08 2058.19 1020.08 2058.19 644.5ZM2113.5 963.402 2068.5 1040.55 2023.5 963.403C2020.63 958.483 2022.29 952.168 2027.21 949.299 2032.13 946.429 2038.44 948.091 2041.31 953.01L2077.41 1014.89 2059.59 1014.89 2095.69 953.01C2098.56 948.09 2104.87 946.429 2109.79 949.299 2114.71 952.168 2116.37 958.483 2113.5 963.402Z"/><path d="M10.3125-9.39824e-06 10.3128 375.581-10.3122 375.581-10.3125 9.39824e-06ZM45.0018 318.902 0.000362762 396.048-45.0012 318.902C-47.8709 313.983-46.2092 307.668-41.2896 304.799-36.37 301.929-30.0555 303.591-27.1858 308.51L8.90806 370.385-8.90738 370.385 27.1863 308.51C30.0561 303.59 36.3706 301.929 41.2902 304.798 46.2098 307.668 47.8715 313.983 45.0018 318.902Z" transform="matrix(1 0 0 -1 2332.5 1040.5)"/><path d="M2078.81 1436.5 2078.81 1812.08 2058.19 1812.08 2058.19 1436.5ZM2113.5 1755.4 2068.5 1832.55 2023.5 1755.4C2020.63 1750.48 2022.29 1744.17 2027.21 1741.3 2032.13 1738.43 2038.44 1740.09 2041.31 1745.01L2077.41 1806.89 2059.59 1806.89 2095.69 1745.01C2098.56 1740.09 2104.87 1738.43 2109.79 1741.3 2114.71 1744.17 2116.37 1750.48 2113.5 1755.4Z"/><path d="M10.3125-9.39824e-06 10.3128 375.581-10.3122 375.581-10.3125 9.39824e-06ZM45.0018 318.902 0.000362762 396.048-45.0012 318.902C-47.8709 313.983-46.2092 307.668-41.2896 304.799-36.37 301.929-30.0555 303.591-27.1858 308.51L8.90806 370.385-8.90738 370.385 27.1863 308.51C30.0561 303.59 36.3706 301.929 41.2902 304.798 46.2098 307.668 47.8715 313.983 45.0018 318.902Z" transform="matrix(1 0 0 -1 2332.5 1832.5)"/><text font-family="Consolas,Consolas_MSFontService,sans-serif" font-weight="700" font-size="37" transform="matrix(-1.83697e-16 -1 1 -1.83697e-16 2042.12 937)">ram_rdata_int</text><text font-family="Consolas,Consolas_MSFontService,sans-serif" font-weight="700" font-size="37" transform="matrix(-1.83697e-16 -1 1 -1.83697e-16 2383.87 1006)">CharIdx</text><text font-family="Consolas,Consolas_MSFontService,sans-serif" font-weight="700" font-size="37" transform="matrix(-1.83697e-16 -1 1 -1.83697e-16 2383.87 865)">[11:x]</text><text font-family="Consolas,Consolas_MSFontService,sans-serif" font-weight="700" font-size="46" transform="matrix(-1.83697e-16 -1 1 -1.83697e-16 2039.06 1702)">rom_addr</text><text font-family="Consolas,Consolas_MSFontService,sans-serif" font-weight="700" font-size="46" transform="matrix(-1.83697e-16 -1 1 -1.83697e-16 2391.92 1767)">rom_data</text><path d="M1408.5 1228.19 1784.08 1228.19 1784.08 1248.81 1408.5 1248.81ZM1727.4 1193.5 1804.55 1238.5 1727.4 1283.5C1722.48 1286.37 1716.17 1284.71 1713.3 1279.79 1710.43 1274.87 1712.09 1268.56 1717.01 1265.69L1778.89 1229.59 1778.89 1247.41 1717.01 1211.31C1712.09 1208.44 1710.43 1202.13 1713.3 1197.21 1716.17 1192.29 1722.48 1190.63 1727.4 1193.5Z"/><text font-family="Consolas,Consolas_MSFontService,sans-serif" font-weight="700" font-size="44" transform="matrix(1 0 0 1 1438.48 1217)">DrawX</text><text font-family="Consolas,Consolas_MSFontService,sans-serif" font-weight="700" font-size="44" transform="matrix(1 0 0 1 1582.86 1217)">DrawY</text><text font-family="Consolas,Consolas_MSFontService,sans-serif" font-weight="700" font-size="44" transform="matrix(1 0 0 1 1438.48 1287)">hs</text><text font-family="Consolas,Consolas_MSFontService,sans-serif" font-weight="700" font-size="44" transform="matrix(1 0 0 1 1510.67 1287)">vs blank</text><path d="M1408.5 436.188 1784.08 436.188 1784.08 456.813 1408.5 456.813ZM1727.4 401.499 1804.55 446.5 1727.4 491.502C1722.48 494.372 1716.17 492.71 1713.3 487.79 1710.43 482.871 1712.09 476.556 1717.01 473.686L1778.89 437.593 1778.89 455.408 1717.01 419.314C1712.09 416.445 1710.43 410.13 1713.3 405.21 1716.17 400.291 1722.48 398.629 1727.4 401.499Z"/><text font-family="Consolas,Consolas_MSFontService,sans-serif" font-weight="700" font-size="92" transform="matrix(1 0 0 1 1072.39 199)">avl_cs</text><text font-family="Consolas,Consolas_MSFontService,sans-serif" font-weight="700" font-size="92" transform="matrix(1 0 0 1 971.552 309)">avl_read</text><text font-family="Consolas,Consolas_MSFontService,sans-serif" font-weight="700" font-size="92" transform="matrix(1 0 0 1 921.135 419)">avl_write</text><text font-family="Consolas,Consolas_MSFontService,sans-serif" font-weight="700" font-size="92" transform="matrix(1 0 0 1 820.302 529)">avl_byte_en</text><text font-family="Consolas,Consolas_MSFontService,sans-serif" font-weight="700" font-size="92" transform="matrix(1 0 0 1 971.552 639)">avl_addr</text><text font-family="Consolas,Consolas_MSFontService,sans-serif" font-weight="700" font-size="92" transform="matrix(1 0 0 1 719.469 749)">avl_writedata</text><path d="M2596.5 438.188 2972.08 438.188 2972.08 458.813 2596.5 458.813ZM2915.4 403.499 2992.55 448.5 2915.4 493.502C2910.48 496.372 2904.17 494.71 2901.3 489.79 2898.43 484.871 2900.09 478.556 2905.01 475.686L2966.88 439.593 2966.88 457.408 2905.01 421.314C2900.09 418.445 2898.43 412.13 2901.3 407.21 2904.17 402.291 2910.48 400.629 2915.4 403.499Z"/><text font-family="Consolas,Consolas_MSFontService,sans-serif" font-weight="700" font-size="92" transform="matrix(1 0 0 1 3025 479)">avl_readdata</text><path d="M2596.5 1228.19 2972.08 1228.19 2972.08 1248.81 2596.5 1248.81ZM2915.4 1193.5 2992.55 1238.5 2915.4 1283.5C2910.48 1286.37 2904.17 1284.71 2901.3 1279.79 2898.43 1274.87 2900.09 1268.56 2905.01 1265.69L2966.88 1229.59 2966.88 1247.41 2905.01 1211.31C2900.09 1208.44 2898.43 1202.13 2901.3 1197.21 2904.17 1192.29 2910.48 1190.63 2915.4 1193.5Z"/><text font-family="Consolas,Consolas_MSFontService,sans-serif" font-weight="700" font-size="92" transform="matrix(1 0 0 1 3025 1049)">red</text><text font-family="Consolas,Consolas_MSFontService,sans-serif" font-weight="700" font-size="92" transform="matrix(1 0 0 1 3025 1159)">green</text><text font-family="Consolas,Consolas_MSFontService,sans-serif" font-weight="700" font-size="92" transform="matrix(1 0 0 1 3025 1269)">blue</text><text font-family="Consolas,Consolas_MSFontService,sans-serif" font-weight="700" font-size="92" transform="matrix(1 0 0 1 3025 1379)">hs</text><text font-family="Consolas,Consolas_MSFontService,sans-serif" font-weight="700" font-size="92" transform="matrix(1 0 0 1 3025 1489)">vs</text></g></svg>