<svg width="15094" height="8138" xmlns="http://www.w3.org/2000/svg" xmlns:xlink="http://www.w3.org/1999/xlink" xml:space="preserve" overflow="hidden"><defs><clipPath id="clip0"><rect x="703" y="109" width="15094" height="8138"/></clipPath></defs><g clip-path="url(#clip0)" transform="translate(-703 -109)"><path d="M5127.38 6677.08 6666 6677.08 6666 6722.92 5127.38 6722.92ZM5253.33 6800 5081.89 6700 5253.33 6600C5264.26 6593.62 5278.29 6597.31 5284.67 6608.24 5291.05 6619.18 5287.35 6633.21 5276.42 6639.59L5138.92 6719.79 5138.92 6680.21 5276.42 6760.41C5287.35 6766.79 5291.05 6780.82 5284.67 6791.76 5278.29 6802.69 5264.26 6806.38 5253.33 6800Z" fill="#0180FF"/><text fill="#0180FF" font-family="Consolas,Consolas_MSFontService,sans-serif" font-weight="700" font-size="330" transform="matrix(1 0 0 1 6755.31 6811)">RST</text><text font-family="Consolas,Consolas_MSFontService,sans-serif" font-weight="700" font-size="330" transform="matrix(1 0 0 1 7481.77 6811)">(Reset)</text><path d="M5127.38 6360.08 6666 6360.08 6666 6405.92 5127.38 6405.92ZM5253.33 6483 5081.89 6383 5253.33 6283C5264.26 6276.62 5278.29 6280.31 5284.67 6291.24 5291.05 6302.18 5287.35 6316.21 5276.42 6322.59L5138.92 6402.79 5138.92 6363.21 5276.42 6443.41C5287.35 6449.79 5291.05 6463.82 5284.67 6474.76 5278.29 6485.69 5264.26 6489.38 5253.33 6483Z" fill="#0180FF"/><text fill="#0180FF" font-family="Consolas,Consolas_MSFontService,sans-serif" font-weight="700" font-size="330" transform="matrix(1 0 0 1 6746.14 6494)">E</text><text font-family="Consolas,Consolas_MSFontService,sans-serif" font-weight="700" font-size="330" transform="matrix(1 0 0 1 7472.6 6494)">(Execute)</text><path d="M5127.38 6043.08 6666 6043.08 6666 6088.92 5127.38 6088.92ZM5253.33 6166 5081.89 6066 5253.33 5966C5264.26 5959.62 5278.29 5963.31 5284.67 5974.24 5291.05 5985.18 5287.35 5999.21 5276.42 6005.59L5138.92 6085.79 5138.92 6046.21 5276.42 6126.41C5287.35 6132.79 5291.05 6146.82 5284.67 6157.76 5278.29 6168.69 5264.26 6172.38 5253.33 6166Z" fill="#0180FF"/><text fill="#0180FF" font-family="Consolas,Consolas_MSFontService,sans-serif" font-weight="700" font-size="330" transform="matrix(1 0 0 1 6746.14 5862)">LA</text><text font-family="Consolas,Consolas_MSFontService,sans-serif" font-weight="700" font-size="330" transform="matrix(1 0 0 1 7472.6 5862)">(</text><text font-family="Consolas,Consolas_MSFontService,sans-serif" font-weight="700" font-size="330" transform="matrix(1 0 0 1 7654.21 5862)">LoadA</text><text font-family="Consolas,Consolas_MSFontService,sans-serif" font-weight="700" font-size="330" transform="matrix(1 0 0 1 8562.29 5862)">)</text><path d="M5127.38 5726.08 6666 5726.08 6666 5771.92 5127.38 5771.92ZM5253.33 5849 5081.89 5749 5253.33 5649C5264.26 5642.62 5278.29 5646.31 5284.67 5657.24 5291.05 5668.18 5287.35 5682.21 5276.42 5688.59L5138.92 5768.79 5138.92 5729.21 5276.42 5809.41C5287.35 5815.79 5291.05 5829.82 5284.67 5840.76 5278.29 5851.69 5264.26 5855.38 5253.33 5849Z" fill="#0180FF"/><text fill="#0180FF" font-family="Consolas,Consolas_MSFontService,sans-serif" font-weight="700" font-size="330" transform="matrix(1 0 0 1 6746.14 6179)">LB</text><text font-family="Consolas,Consolas_MSFontService,sans-serif" font-weight="700" font-size="330" transform="matrix(1 0 0 1 7472.6 6179)">(</text><text font-family="Consolas,Consolas_MSFontService,sans-serif" font-weight="700" font-size="330" transform="matrix(1 0 0 1 7654.21 6179)">LoadB</text><text font-family="Consolas,Consolas_MSFontService,sans-serif" font-weight="700" font-size="330" transform="matrix(1 0 0 1 8562.29 6179)">)</text><path d="M3520.92 7062.37 3520.92 7809 3475.08 7809 3475.08 7062.37ZM3398 7188.33 3498 7016.89 3598 7188.33C3604.38 7199.26 3600.69 7213.29 3589.76 7219.67 3578.82 7226.05 3564.79 7222.35 3558.41 7211.42L3478.21 7073.92 3517.79 7073.92 3437.59 7211.42C3431.21 7222.35 3417.18 7226.05 3406.24 7219.67 3395.31 7213.29 3391.62 7199.26 3398 7188.33Z" fill="#8A3CC4"/><path d="M22.9167-1.04425e-05 22.917 746.625-22.9163 746.625-22.9167 1.04425e-05ZM100.004 620.672 0.000362185 792.106-100.003 620.672C-106.38 609.74-102.688 595.707-91.7551 589.33-80.8227 582.953-66.7904 586.646-60.4131 597.578L19.7953 735.078-19.7946 735.078 60.4137 597.578C66.7909 586.645 80.8232 582.953 91.7556 589.33 102.688 595.707 106.381 609.74 100.004 620.672Z" fill="#8A3CC4" transform="matrix(1 0 0 -1 2970 4641)"/><path d="M1122 4641 2970 4641" stroke="#8A3CC4" stroke-width="45.8333" stroke-miterlimit="8" fill="none" fill-rule="evenodd"/><path d="M1122 7809.25 1122 4641" stroke="#8A3CC4" stroke-width="45.8333" stroke-miterlimit="8" fill="none" fill-rule="evenodd"/><path d="M1122 7809 6666 7809" stroke="#8A3CC4" stroke-width="45.8333" stroke-miterlimit="8" fill="none" fill-rule="evenodd"/><text fill="#8A3CC4" font-family="Consolas,Consolas_MSFontService,sans-serif" font-weight="700" font-size="367" transform="matrix(1 0 0 1 6755.31 7932)">CLK</text><path d="M22.9167-5.22124e-06 22.917 1538.62-22.9163 1538.62-22.9167 5.22124e-06ZM100.004 1412.67 0.000356831 1584.11-100.003 1412.67C-106.38 1401.74-102.688 1387.71-91.7551 1381.33-80.8226 1374.95-66.7903 1378.65-60.4131 1389.58L19.7953 1527.08-19.7946 1527.08 60.4137 1389.58C66.791 1378.65 80.8233 1374.95 91.7557 1381.33 102.688 1387.71 106.381 1401.74 100.004 1412.67Z" fill="#8041B4" transform="matrix(1 0 0 -1 4026 5433)"/><text fill="#0180FF" font-family="Consolas,Consolas_MSFontService,sans-serif" font-weight="700" font-size="275" transform="matrix(-1.83697e-16 -1 1 -1.83697e-16 3951.62 5251)">S</text><text fill="#8041B4" font-family="Consolas,Consolas_MSFontService,sans-serif" font-weight="700" font-size="275" transform="matrix(-1.83697e-16 -1 1 -1.83697e-16 3951.62 5100)">1</text><text fill="#FF0168" font-family="Consolas,Consolas_MSFontService,sans-serif" font-weight="700" font-size="275" transform="matrix(-1.83697e-16 -1 1 -1.83697e-16 3951.62 4949)">a</text><text fill="#0180FF" font-family="Consolas,Consolas_MSFontService,sans-serif" font-weight="700" font-size="275" transform="matrix(-1.83697e-16 -1 1 -1.83697e-16 3951.62 4646)">S</text><text fill="#8041B4" font-family="Consolas,Consolas_MSFontService,sans-serif" font-weight="700" font-size="275" transform="matrix(-1.83697e-16 -1 1 -1.83697e-16 3951.62 4495)">0</text><text fill="#FF0168" font-family="Consolas,Consolas_MSFontService,sans-serif" font-weight="700" font-size="275" transform="matrix(-1.83697e-16 -1 1 -1.83697e-16 3951.62 4344)">a</text><text fill="#0180FF" font-family="Consolas,Consolas_MSFontService,sans-serif" font-weight="700" font-size="275" transform="matrix(-1.83697e-16 -1 1 -1.83697e-16 4281.62 5251)">S</text><text fill="#8041B4" font-family="Consolas,Consolas_MSFontService,sans-serif" font-weight="700" font-size="275" transform="matrix(-1.83697e-16 -1 1 -1.83697e-16 4281.62 5100)">1</text><text fill="#FF0168" font-family="Consolas,Consolas_MSFontService,sans-serif" font-weight="700" font-size="275" transform="matrix(-1.83697e-16 -1 1 -1.83697e-16 4281.62 4949)">b</text><text fill="#0180FF" font-family="Consolas,Consolas_MSFontService,sans-serif" font-weight="700" font-size="275" transform="matrix(-1.83697e-16 -1 1 -1.83697e-16 4281.62 4646)">S</text><text fill="#8041B4" font-family="Consolas,Consolas_MSFontService,sans-serif" font-weight="700" font-size="275" transform="matrix(-1.83697e-16 -1 1 -1.83697e-16 4281.62 4495)">0</text><text fill="#FF0168" font-family="Consolas,Consolas_MSFontService,sans-serif" font-weight="700" font-size="275" transform="matrix(-1.83697e-16 -1 1 -1.83697e-16 4281.62 4344)">b</text><path d="M726 3232.08 1868.63 3232.08 1868.63 3277.92 726 3277.92ZM1742.67 3155 1914.11 3255 1742.67 3355C1731.74 3361.38 1717.71 3357.69 1711.33 3346.76 1704.95 3335.82 1708.65 3321.79 1719.58 3315.41L1857.08 3235.21 1857.08 3274.8 1719.58 3194.59C1708.65 3188.21 1704.95 3174.18 1711.33 3163.24 1717.71 3152.31 1731.74 3148.62 1742.67 3155Z" fill="#905294"/><path d="M0 0 0.000360892 1980" stroke="#905294" stroke-width="45.8333" stroke-miterlimit="8" fill="none" fill-rule="evenodd" transform="matrix(1 0 0 -1 726 3255)"/><path d="M726 1275 15774 1275" stroke="#905294" stroke-width="45.8333" stroke-miterlimit="8" fill="none" fill-rule="evenodd"/><path d="M0 0 0.000360892 1980" stroke="#905294" stroke-width="45.8333" stroke-miterlimit="8" fill="none" fill-rule="evenodd" transform="matrix(1 0 0 -1 15774 3255)"/><path d="M14586 3255 15774 3255" stroke="#905294" stroke-width="45.8333" stroke-miterlimit="8" fill="none" fill-rule="evenodd"/><text fill="#20C0A2" font-family="Consolas,Consolas_MSFontService,sans-serif" font-weight="700" font-size="367" transform="matrix(1 0 0 1 14780.3 3617)">B</text><text fill="#FF0168" font-family="Consolas,Consolas_MSFontService,sans-serif" font-weight="700" font-size="367" transform="matrix(1 0 0 1 14982 3617)">n</text><path d="M1122 2836.08 1868.63 2836.08 1868.63 2881.92 1122 2881.92ZM1742.67 2759 1914.11 2859 1742.67 2959C1731.74 2965.38 1717.71 2961.69 1711.33 2950.76 1704.95 2939.82 1708.65 2925.79 1719.58 2919.41L1857.08 2839.21 1857.08 2878.8 1719.58 2798.59C1708.65 2792.21 1704.95 2778.18 1711.33 2767.24 1717.71 2756.31 1731.74 2752.62 1742.67 2759Z" fill="#905294"/><path d="M0 0 0.000360892 1188" stroke="#905294" stroke-width="45.8333" stroke-miterlimit="8" fill="none" fill-rule="evenodd" transform="matrix(1 0 0 -1 1122 2860)"/><path d="M1122 1671 15378 1671" stroke="#905294" stroke-width="45.8333" stroke-miterlimit="8" fill="none" fill-rule="evenodd"/><path d="M0 0 0.000360892 1188" stroke="#905294" stroke-width="45.8333" stroke-miterlimit="8" fill="none" fill-rule="evenodd" transform="matrix(1 0 0 -1 15378 2860)"/><path d="M14586 2859 15378 2859" stroke="#905294" stroke-width="45.8333" stroke-miterlimit="8" fill="none" fill-rule="evenodd"/><text fill="#20C0A2" font-family="Consolas,Consolas_MSFontService,sans-serif" font-weight="700" font-size="367" transform="matrix(1 0 0 1 14780.3 2743)">A</text><text fill="#FF0168" font-family="Consolas,Consolas_MSFontService,sans-serif" font-weight="700" font-size="367" transform="matrix(1 0 0 1 14982 2743)">n</text><path d="M9834 3430.08 11372.6 3430.08 11372.6 3475.92 9834 3475.92ZM11246.7 3353 11418.1 3453 11246.7 3553C11235.7 3559.38 11221.7 3555.69 11215.3 3544.76 11209 3533.82 11212.6 3519.79 11223.6 3513.41L11361.1 3433.21 11361.1 3472.8 11223.6 3392.59C11212.6 3386.21 11209 3372.18 11215.3 3361.24 11221.7 3350.31 11235.7 3346.62 11246.7 3353Z" fill="#909452"/><text fill="#FF6801" font-family="Consolas,Consolas_MSFontService,sans-serif" font-weight="700" font-size="367" transform="matrix(1 0 0 1 10424.3 3815)">B</text><text fill="#20C0A2" font-family="Consolas,Consolas_MSFontService,sans-serif" font-weight="700" font-size="367" transform="matrix(1 0 0 1 10626 3815)">0</text><path d="M9834 3034.08 11372.6 3034.08 11372.6 3079.92 9834 3079.92ZM11246.7 2957 11418.1 3057 11246.7 3157C11235.7 3163.38 11221.7 3159.69 11215.3 3148.76 11209 3137.82 11212.6 3123.79 11223.6 3117.41L11361.1 3037.21 11361.1 3076.8 11223.6 2996.59C11212.6 2990.21 11209 2976.18 11215.3 2965.24 11221.7 2954.31 11235.7 2950.62 11246.7 2957Z" fill="#909452"/><text fill="#FF6801" font-family="Consolas,Consolas_MSFontService,sans-serif" font-weight="700" font-size="367" transform="matrix(1 0 0 1 10323.5 2981)">F</text><text fill="#909452" font-family="Consolas,Consolas_MSFontService,sans-serif" font-weight="700" font-size="367" transform="matrix(1 0 0 1 10525.2 2981)">A</text><text fill="#20C0A2" font-family="Consolas,Consolas_MSFontService,sans-serif" font-weight="700" font-size="367" transform="matrix(1 0 0 1 10726.8 2981)">B</text><path d="M9834 2638.08 11372.6 2638.08 11372.6 2683.92 9834 2683.92ZM11246.7 2561 11418.1 2661 11246.7 2761C11235.7 2767.38 11221.7 2763.69 11215.3 2752.76 11209 2741.82 11212.6 2727.79 11223.6 2721.41L11361.1 2641.21 11361.1 2680.8 11223.6 2600.59C11212.6 2594.21 11209 2580.18 11215.3 2569.24 11221.7 2558.31 11235.7 2554.62 11246.7 2561Z" fill="#909452"/><text fill="#FF6801" font-family="Consolas,Consolas_MSFontService,sans-serif" font-weight="700" font-size="367" transform="matrix(1 0 0 1 10424.3 2546)">A</text><text fill="#20C0A2" font-family="Consolas,Consolas_MSFontService,sans-serif" font-weight="700" font-size="367" transform="matrix(1 0 0 1 10626 2546)">0</text><path d="M5082 3232.08 6620.62 3232.08 6620.62 3277.92 5082 3277.92ZM6494.67 3155 6666.11 3255 6494.67 3355C6483.74 3361.38 6469.71 3357.69 6463.33 3346.76 6456.95 3335.82 6460.65 3321.79 6471.58 3315.41L6609.08 3235.21 6609.08 3274.8 6471.58 3194.59C6460.65 3188.21 6456.95 3174.18 6463.33 3163.24 6469.71 3152.31 6483.74 3148.62 6494.67 3155Z" fill="#FF3535"/><text fill="#FF0168" font-family="Consolas,Consolas_MSFontService,sans-serif" font-weight="700" font-size="367" transform="matrix(1 0 0 1 5672.33 3617)">B</text><text fill="#FF6801" font-family="Consolas,Consolas_MSFontService,sans-serif" font-weight="700" font-size="367" transform="matrix(1 0 0 1 5874 3617)">0</text><path d="M5082 2836.08 6620.62 2836.08 6620.62 2881.92 5082 2881.92ZM6494.67 2759 6666.11 2859 6494.67 2959C6483.74 2965.38 6469.71 2961.69 6463.33 2950.76 6456.95 2939.82 6460.65 2925.79 6471.58 2919.41L6609.08 2839.21 6609.08 2878.8 6471.58 2798.59C6460.65 2792.21 6456.95 2778.18 6463.33 2767.24 6469.71 2756.31 6483.74 2752.62 6494.67 2759Z" fill="#FF3535"/><text fill="#FF0168" font-family="Consolas,Consolas_MSFontService,sans-serif" font-weight="700" font-size="367" transform="matrix(1 0 0 1 5672.33 2742)">A</text><text fill="#FF6801" font-family="Consolas,Consolas_MSFontService,sans-serif" font-weight="700" font-size="367" transform="matrix(1 0 0 1 5874 2742)">0</text><path d="M13024.9 680 13024.9 2218.62 12979.1 2218.62 12979.1 680ZM13102 2092.67 13002 2264.11 12902 2092.67C12895.6 2081.74 12899.3 2067.71 12910.2 2061.33 12921.2 2054.95 12935.2 2058.65 12941.6 2069.58L13021.8 2207.08 12982.2 2207.08 13062.4 2069.58C13068.8 2058.65 13082.8 2054.95 13093.8 2061.33 13104.7 2067.71 13108.4 2081.74 13102 2092.67Z" fill="#20C0A2"/><text fill="#20C0A2" font-family="Consolas,Consolas_MSFontService,sans-serif" font-weight="700" font-size="367" transform="matrix(1 0 0 1 12397 565)">R[1:0]</text><path d="M8272.92 681 8272.92 2218.59 8227.08 2218.59 8227.08 681ZM8350 2092.63 8250 2264.07 8150 2092.63C8143.62 2081.7 8147.31 2067.67 8158.25 2061.29 8169.18 2054.91 8183.21 2058.61 8189.59 2069.54L8269.79 2207.04 8230.21 2207.04 8310.41 2069.54C8316.79 2058.61 8330.82 2054.91 8341.76 2061.29 8352.69 2067.67 8356.38 2081.7 8350 2092.63Z" fill="#FF6801"/><text fill="#FF6801" font-family="Consolas,Consolas_MSFontService,sans-serif" font-weight="700" font-size="367" transform="matrix(1 0 0 1 7645 565)">F[2:0]</text><path d="M3520.92 681 3520.92 2218.58 3475.08 2218.58 3475.08 681ZM3598 2092.63 3498 2264.07 3398 2092.63C3391.62 2081.7 3395.31 2067.67 3406.24 2061.29 3417.18 2054.91 3431.21 2058.6 3437.59 2069.54L3517.8 2207.04 3478.21 2207.04 3558.41 2069.54C3564.79 2058.6 3578.82 2054.91 3589.76 2061.29 3600.69 2067.67 3604.38 2081.7 3598 2092.63Z" fill="#FF0168"/><text fill="#FF0168" font-family="Consolas,Consolas_MSFontService,sans-serif" font-weight="700" font-size="367" transform="matrix(1 0 0 1 2893 565)">D[3:0]</text><rect x="1914" y="5433" width="3168" height="1584" stroke="#000000" stroke-width="45.8333" stroke-miterlimit="8" fill="#C1E0FF"/><text font-family="Consolas,Consolas_MSFontService,sans-serif" font-weight="700" font-size="440" transform="matrix(1 0 0 1 2651.8 6171)">CONTROL</text><text font-family="Consolas,Consolas_MSFontService,sans-serif" font-weight="700" font-size="440" transform="matrix(1 0 0 1 3014.46 6581)">UNIT</text><rect x="11418" y="2265" width="3168" height="1584" stroke="#000000" stroke-width="45.8333" stroke-miterlimit="8" fill="#CAF6EE"/><text font-family="Consolas,Consolas_MSFontService,sans-serif" font-weight="700" font-size="440" transform="matrix(1 0 0 1 12155.8 3003)">ROUTING</text><text font-family="Consolas,Consolas_MSFontService,sans-serif" font-weight="700" font-size="440" transform="matrix(1 0 0 1 12518.5 3413)">UNIT</text><rect x="6666" y="2265" width="3168" height="1584" stroke="#000000" stroke-width="45.8333" stroke-miterlimit="8" fill="#FFDAC1"/><text font-family="Consolas,Consolas_MSFontService,sans-serif" font-weight="700" font-size="440" transform="matrix(1 0 0 1 6920.26 3003)">COMPUTATION</text><text font-family="Consolas,Consolas_MSFontService,sans-serif" font-weight="700" font-size="440" transform="matrix(1 0 0 1 7766.46 3413)">UNIT</text><rect x="1914" y="2265" width="3168" height="1584" stroke="#000000" stroke-width="45.8333" stroke-miterlimit="8" fill="#FFC1DA"/><text font-family="Consolas,Consolas_MSFontService,sans-serif" font-weight="700" font-size="440" transform="matrix(1 0 0 1 2530.92 3003)">REGISTER</text><text font-family="Consolas,Consolas_MSFontService,sans-serif" font-weight="700" font-size="440" transform="matrix(1 0 0 1 3014.46 3413)">UNIT</text></g></svg>