<svg width="8794" height="9092" xmlns="http://www.w3.org/2000/svg" xmlns:xlink="http://www.w3.org/1999/xlink" xml:space="preserve" overflow="hidden"><defs><clipPath id="clip0"><rect x="3428" y="-1144" width="8794" height="9092"/></clipPath></defs><g clip-path="url(#clip0)" transform="translate(-3428 1144)"><path d="M16.1894-22.2296 1757.47 1245.91 1725.09 1290.37-16.1894 22.2296ZM1689.76 1082.16 1785.4 1300.28 1548.46 1276.17C1533.35 1274.63 1522.35 1261.14 1523.89 1246.03 1525.42 1230.92 1538.92 1219.92 1554.03 1221.45L1744.07 1240.79 1716.1 1279.19 1639.39 1104.25C1633.29 1090.34 1639.62 1074.12 1653.53 1068.02 1667.44 1061.92 1683.66 1068.25 1689.76 1082.16Z" transform="matrix(1 0 0 -1 5798.5 2939.7)"/><text font-family="Consolas,Consolas_MSFontService,sans-serif" font-weight="400" font-size="458" transform="matrix(0.809017 -0.587785 0.587785 0.809017 6635.51 2857)">0/0</text><path d="M4348.1 3160.06 4331.07 3157 4313.79 3153.48 4296.7 3149.51 4279.84 3145.21 4263.1 3140.46 4246.58 3135.33 4230.26 3129.81 4214.09 3123.88 4198.2 3117.54 4182.49 3110.86 4167.08 3103.81 4151.83 3096.45 4136.84 3088.67 4122.04 3080.59 4107.49 3072.12 4093.26 3063.36 4079.19 3054.28 4065.4 3044.86 4051.88 3035.11 4038.61 3025.04 4025.62 3014.69 4012.9 3004.05 4000.43 2993.09 3988.27 2981.89 3976.35 2970.36 3964.75 2958.6 3953.39 2946.52 3942.44 2934.21 3931.74 2921.69 3921.3 2908.87 3911.25 2895.82 3901.43 2882.52 3892.02 2869.01 3882.87 2855.31 3874.09 2841.34 3865.57 2827.18 3857.43 2812.75 3849.69 2798.25 3842.2 2783.51 3835.09 2768.5 3828.35 2753.35 3822.03 2738.14 3815.95 2722.69 3810.3 2707.02 3805.02 2691.22 3800.13 2675.3 3795.6 2659.21 3791.45 2642.99 3787.7 2626.64 3784.34 2610.14 3781.42 2593.61 3778.85 2576.9 3776.7 2560.1 3774.95 2543.14 3773.68 2526.1 3772.8 2509.07 3772.34 2491.96 3772.28 2474.7 3772.69 2457.4 3773.54 2439.95 3774.84 2422.62 3776.54 2405.14 3778.76 2387.57 3781.43 2369.79 3784.88 2352.47 3788.35 2335.45 3792.32 2318.36 3796.62 2301.5 3801.37 2284.75 3806.5 2268.24 3812.02 2251.91 3817.95 2235.74 3824.29 2219.86 3830.97 2204.15 3838.02 2188.74 3845.37 2173.49 3853.16 2158.49 3861.23 2143.7 3869.71 2129.15 3878.47 2114.92 3887.55 2100.85 3896.97 2087.06 3906.72 2073.54 3916.79 2060.26 3927.14 2047.28 3937.78 2034.56 3948.74 2022.09 3959.93 2009.93 3971.42 1998.05 3983.18 1986.45 3995.26 1975.09 4007.57 1964.13 4020.09 1953.44 4032.91 1942.99 4046.01 1932.91 4059.26 1923.12 4072.77 1913.71 4086.47 1904.56 4100.44 1895.78 4114.6 1887.26 4129.02 1879.12 4143.53 1871.39 4158.28 1863.89 4173.24 1856.82 4188.36 1850.09 4203.64 1843.72 4219.04 1837.68 4234.76 1831.99 4250.52 1826.74 4266.42 1821.86 4282.51 1817.33 4298.76 1813.18 4315.06 1809.47 4331.51 1806.11 4348.12 1803.15 4364.8 1800.61 4381.6 1798.47 4398.51 1796.75 4415.53 1795.49 4432.53 1794.6 4449.72 1794.11 4466.96 1794.08 4484.26 1794.49 4501.63 1795.38 4519.01 1796.64 4536.47 1798.38 4554 1800.6 4571.72 1803.27 4605.73 1809.86 4638.98 1817.91 4671.53 1827.5 4703.38 1838.65 4734.38 1851.2 4764.58 1865.17 4793.87 1880.54 4822.24 1897.24 4849.73 1915.12 4876.2 1934.37 4901.63 1954.66 4926.03 1976.15 4949.37 1998.76 4971.54 2022.3 4992.63 2046.9 5012.5 2072.47 5031.17 2098.95 5048.58 2126.23 5064.68 2154.37 5079.48 2183.27 5092.93 2212.86 5104.95 2243.13 5115.63 2274.02 5124.77 2305.54 5132.48 2337.52 5138.62 2370.04 5143.18 2403 5146.2 2436.29 5147.58 2469.99 5147.27 2504.03 5146.55 2516.39 5091.64 2513.15 5092.33 2501.47 5092.28 2502.84 5092.58 2470.18 5092.6 2471.55 5091.28 2439.22 5091.37 2440.58 5088.47 2408.62 5088.61 2409.9 5084.23 2378.25 5084.45 2379.58 5078.56 2348.4 5078.85 2349.74 5071.45 2319.03 5071.77 2320.25 5063 2290 5063.43 2291.33 5053.18 2261.7 5053.61 2262.86 5042.06 2233.78 5042.58 2235.01 5029.67 2206.61 5030.23 2207.77 5016.02 2180.01 5016.62 2181.13 5001.17 2154.12 5001.86 2155.25 4985.15 2129.07 4985.86 2130.13 4967.92 2104.69 4968.68 2105.71 4949.61 2081.17 4950.45 2082.2 4930.21 2058.59 4931.06 2059.54 4909.77 2036.93 4910.65 2037.83 4888.23 2016.11 4889.18 2016.99 4865.78 1996.37 4866.81 1997.24 4842.38 1977.75 4843.35 1978.49 4817.95 1960.02 4819.14 1960.83 4792.77 1943.68 4793.82 1944.33 4766.56 1928.29 4767.73 1928.94 4739.63 1914.2 4740.87 1914.8 4711.89 1901.4 4713.12 1901.93 4683.35 1889.88 4684.58 1890.34 4654.01 1879.64 4655.33 1880.06 4624.08 1870.86 4625.37 1871.21 4593.4 1863.46 4594.64 1863.73 4561.82 1857.37 4562.97 1857.57 4546.14 1855.04 4546.78 1855.12 4529.93 1852.99 4530.66 1853.08 4513.92 1851.41 4514.65 1851.47 4497.93 1850.26 4498.52 1850.29 4481.83 1849.44 4482.59 1849.47 4466.01 1849.08 4466.69 1849.09 4450.18 1849.11 4450.93 1849.1 4434.43 1849.57 4435.07 1849.55 4418.69 1850.4 4419.3 1850.36 4402.96 1851.57 4403.69 1851.51 4387.5 1853.15 4388.21 1853.07 4372.09 1855.13 4372.74 1855.04 4356.74 1857.47 4357.44 1857.35 4341.51 1860.2 4342.17 1860.07 4326.35 1863.29 4326.97 1863.16 4311.33 1866.72 4312.02 1866.56 4296.45 1870.53 4297.1 1870.36 4281.64 1874.71 4282.26 1874.53 4266.97 1879.22 4267.59 1879.03 4252.48 1884.06 4253.15 1883.83 4238.1 1889.27 4238.78 1889.02 4223.99 1894.82 4224.53 1894.6 4209.82 1900.73 4210.42 1900.47 4195.88 1906.94 4196.46 1906.67 4182.15 1913.44 4182.85 1913.1 4168.69 1920.3 4169.16 1920.05 4155.19 1927.5 4155.77 1927.18 4141.96 1934.97 4142.62 1934.59 4129.02 1942.77 4129.48 1942.49 4116.06 1950.92 4116.7 1950.51 4103.54 1959.3 4103.99 1958.99 4091.01 1968.03 4091.63 1967.59 4078.91 1976.99 4079.34 1976.66 4066.76 1986.35 4067.35 1985.87 4055.07 1995.87 4055.57 1995.46 4043.52 2005.76 4043.93 2005.4 4032.11 2015.92 4032.66 2015.42 4021.1 2026.29 4021.57 2025.83 4010.27 2036.98 4010.74 2036.51 3999.71 2047.92 4000.17 2047.44 3989.41 2059.11 3989.84 2058.64 3979.3 2070.62 3979.75 2070.11 3969.53 2082.31 3969.95 2081.81 3960.01 2094.28 3960.41 2093.77 3950.74 2106.51 3951.14 2105.97 3941.79 2118.94 3942.18 2118.38 3933.16 2131.58 3933.57 2130.97 3924.85 2144.49 3925.15 2144 3916.72 2157.7 3917.07 2157.12 3908.95 2171.05 3909.33 2170.38 3901.58 2184.59 3901.84 2184.09 3894.37 2198.48 3894.73 2197.76 3887.67 2212.39 3887.91 2211.88 3881.14 2226.69 3881.44 2226.01 3875.02 2241.1 3875.25 2240.54 3869.17 2255.77 3869.45 2255.04 3863.78 2270.52 3864.01 2269.87 3858.71 2285.54 3858.92 2284.88 3853.99 2300.75 3854.18 2300.1 3849.63 2316.15 3849.82 2315.44 3845.68 2331.66 3845.83 2331.07 3842.01 2347.52 3842.17 2346.81 3838.78 2363.41 3838.81 2363.27 3835.5 2379.88 3835.73 2378.61 3833.2 2395.44 3833.28 2394.8 3831.15 2411.64 3831.24 2410.85 3829.61 2427.64 3829.66 2427.04 3828.41 2443.71 3828.45 2442.99 3827.64 2459.73 3827.66 2459.04 3827.27 2475.62 3827.28 2474.87 3827.34 2491.44 3827.33 2490.81 3827.77 2507.25 3827.74 2506.56 3828.59 2522.93 3828.56 2522.32 3829.77 2538.67 3829.7 2537.88 3831.38 2554.12 3831.3 2553.47 3833.36 2569.59 3833.26 2568.89 3835.73 2584.94 3835.63 2584.33 3838.44 2600.21 3838.3 2599.51 3841.53 2615.32 3841.39 2614.67 3844.98 2630.36 3844.83 2629.71 3848.8 2645.28 3848.63 2644.63 3852.98 2660.08 3852.8 2659.47 3857.49 2674.75 3857.29 2674.11 3862.36 2689.27 3862.14 2688.66 3867.55 2703.65 3867.28 2702.92 3873.11 2717.76 3872.92 2717.27 3879.01 2731.93 3878.74 2731.31 3885.21 2745.84 3884.93 2745.25 3891.74 2759.61 3891.4 2758.93 3898.6 2773.09 3898.35 2772.61 3905.81 2786.59 3905.49 2786.01 3913.28 2799.82 3912.89 2799.16 3921.08 2812.76 3920.79 2812.3 3929.23 2825.72 3928.82 2825.08 3937.6 2838.24 3937.3 2837.79 3946.34 2850.77 3945.9 2850.15 3955.33 2862.92 3955 2862.49 3964.65 2875.02 3964.18 2874.43 3974.18 2886.7 3973.76 2886.21 3984.07 2898.26 3983.71 2897.85 3994.23 2909.67 3993.72 2909.12 4004.6 2920.68 4004.14 2920.21 4015.28 2931.5 4014.83 2931.05 4026.27 2942.13 4025.78 2941.66 4037.46 2952.42 4036.98 2951.99 4048.96 2962.53 4048.45 2962.08 4060.66 2972.29 4060.15 2971.88 4072.63 2981.82 4072.11 2981.42 4084.86 2991.09 4084.31 2990.69 4097.28 3000.04 4096.72 2999.65 4109.93 3008.67 4109.31 3008.26 4122.83 3016.98 4122.34 3016.67 4136.04 3025.11 4135.46 3024.76 4149.39 3032.88 4148.73 3032.5 4162.93 3040.25 4162.43 3039.99 4176.82 3047.45 4176.1 3047.09 4190.73 3054.16 4190.22 3053.91 4205.03 3060.69 4204.35 3060.39 4219.44 3066.81 4218.88 3066.58 4234.11 3072.66 4233.38 3072.38 4248.86 3078.05 4248.21 3077.82 4263.88 3083.12 4263.23 3082.91 4279.09 3087.84 4278.44 3087.65 4294.5 3092.2 4293.78 3092.01 4310 3096.14 4309.42 3096 4325.86 3099.81 4325.15 3099.66 4341.75 3103.05 4341.1 3102.93 4357.81 3105.92ZM5252.07 2374.91 5114.24 2569.13 5013.02 2353.55C5006.56 2339.8 5012.48 2323.42 5026.22 2316.97 5039.97 2310.51 5056.35 2316.42 5062.8 2330.17L5143.99 2503.08 5096.67 2498.86 5207.22 2343.08C5216.01 2330.69 5233.18 2327.78 5245.56 2336.57 5257.95 2345.36 5260.86 2362.52 5252.07 2374.91Z"/><text font-family="Consolas,Consolas_MSFontService,sans-serif" font-weight="400" font-size="458" transform="matrix(0.809017 -0.587785 0.587785 0.809017 4074.24 2593)">1/0</text><path d="M4306.5 3424.5C4306.5 2968.86 4675.87 2599.5 5131.5 2599.5 5587.13 2599.5 5956.5 2968.86 5956.5 3424.5 5956.5 3880.13 5587.13 4249.5 5131.5 4249.5 4675.87 4249.5 4306.5 3880.13 4306.5 3424.5Z" stroke="#000000" stroke-width="55" stroke-miterlimit="8" fill="none" fill-rule="evenodd"/><text font-family="Consolas,Consolas_MSFontService,sans-serif" font-weight="400" font-size="458" transform="matrix(1 0 0 1 4627.33 3357)">DONE</text><text font-family="Consolas,Consolas_MSFontService,sans-serif" font-weight="400" font-size="458" transform="matrix(1 0 0 1 4753.37 3805)">100</text><path d="M6049.13 6319.06 5386.09 4268.78 5438.42 4251.85 6101.47 6302.14ZM5344.58 4441.04 5395.46 4208.38 5572.94 4367.19C5584.26 4377.32 5585.23 4394.71 5575.1 4406.02 5564.97 4417.34 5547.59 4418.31 5536.27 4408.18L5393.92 4280.8 5439.12 4266.18 5398.31 4452.79C5395.06 4467.63 5380.41 4477.03 5365.57 4473.78 5350.73 4470.54 5341.33 4455.88 5344.58 4441.04Z"/><text font-family="Consolas,Consolas_MSFontService,sans-serif" font-weight="400" font-size="458" transform="matrix(0.309017 0.951056 -0.951056 0.309017 5735.36 4862)">x/1</text><path d="M5513.5 7095.5C5513.5 6639.87 5882.87 6270.5 6338.5 6270.5 6794.13 6270.5 7163.5 6639.87 7163.5 7095.5 7163.5 7551.13 6794.13 7920.5 6338.5 7920.5 5882.87 7920.5 5513.5 7551.13 5513.5 7095.5Z" stroke="#000000" stroke-width="55" stroke-miterlimit="8" fill="none" fill-rule="evenodd"/><text font-family="Consolas,Consolas_MSFontService,sans-serif" font-weight="400" font-size="458" transform="matrix(1 0 0 1 5833.77 7028)">RUN3</text><text font-family="Consolas,Consolas_MSFontService,sans-serif" font-weight="400" font-size="458" transform="matrix(1 0 0 1 5959.82 7476)">111</text><path d="M4.52246e-06-27.5 2140.05-27.4996 2140.05 27.5004-4.52246e-06 27.5ZM1988.91-120.004 2194.63 0.000357587 1988.91 120.004C1975.79 127.657 1958.95 123.226 1951.3 110.107 1943.64 96.9878 1948.07 80.1491 1961.19 72.4964L2126.19-23.7536 2126.19 23.7543 1961.19-72.4958C1948.07-80.1485 1943.64-96.9872 1951.3-110.106 1958.95-123.225 1975.79-127.656 1988.91-120.004Z" transform="matrix(-1 0 0 1 9358 7095.5)"/><text font-family="Consolas,Consolas_MSFontService,sans-serif" font-weight="400" font-size="458" transform="matrix(1 0 0 1 7871.87 6971)">x/1</text><path d="M9356.5 7095.5C9356.5 6639.87 9725.87 6270.5 10181.5 6270.5 10637.1 6270.5 11006.5 6639.87 11006.5 7095.5 11006.5 7551.13 10637.1 7920.5 10181.5 7920.5 9725.87 7920.5 9356.5 7551.13 9356.5 7095.5Z" stroke="#000000" stroke-width="55" stroke-miterlimit="8" fill="none" fill-rule="evenodd"/><text font-family="Consolas,Consolas_MSFontService,sans-serif" font-weight="400" font-size="458" transform="matrix(1 0 0 1 9677.3 7028)">RUN2</text><text font-family="Consolas,Consolas_MSFontService,sans-serif" font-weight="400" font-size="458" transform="matrix(1 0 0 1 9803.34 7476)">110</text><path d="M26.1658-8.46178 689.209 2041.82 636.877 2058.75-26.1658 8.46178ZM730.72 1869.56 679.839 2102.22 502.357 1943.41C491.039 1933.28 490.074 1915.89 500.201 1904.58 510.329 1893.26 527.714 1892.29 539.033 1902.42L681.383 2029.8 636.181 2044.42 676.99 1857.81C680.235 1842.97 694.893 1833.57 709.73 1836.82 724.568 1840.06 733.965 1854.72 730.72 1869.56Z" transform="matrix(-1 0 0 1 11115.3 4208.5)"/><text font-family="Consolas,Consolas_MSFontService,sans-serif" font-weight="400" font-size="458" transform="matrix(0.309017 -0.951056 0.951056 0.309017 10540.7 5581)">x/1</text><path d="M10544.5 3424.5C10544.5 2968.86 10913.9 2599.5 11369.5 2599.5 11825.1 2599.5 12194.5 2968.86 12194.5 3424.5 12194.5 3880.13 11825.1 4249.5 11369.5 4249.5 10913.9 4249.5 10544.5 3880.13 10544.5 3424.5Z" stroke="#000000" stroke-width="55" stroke-miterlimit="8" fill="none" fill-rule="evenodd"/><text font-family="Consolas,Consolas_MSFontService,sans-serif" font-weight="400" font-size="458" transform="matrix(1 0 0 1 10864.3 3357)">RUN1</text><text font-family="Consolas,Consolas_MSFontService,sans-serif" font-weight="400" font-size="458" transform="matrix(1 0 0 1 10990.4 3805)">101</text><path d="M8933.69 1617.27 10675 2885.41 10642.6 2929.87 8901.31 1661.73ZM10607.3 2721.66 10702.9 2939.77 10466 2915.67C10450.9 2914.13 10439.8 2900.64 10441.4 2885.53 10442.9 2870.42 10456.4 2859.42 10471.5 2860.95L10661.6 2880.29 10633.6 2918.69 10556.9 2743.75C10550.8 2729.84 10557.1 2713.62 10571 2707.52 10584.9 2701.42 10601.2 2707.75 10607.3 2721.66Z"/><text font-family="Consolas,Consolas_MSFontService,sans-serif" font-weight="400" font-size="458" transform="matrix(0.809017 0.587785 -0.587785 0.809017 9252.67 2412)">1/1</text><path d="M7761.23 483.476 7749.25 470.994 7737.34 457.984 7725.84 444.733 7714.73 431.343 7703.98 417.66 7693.63 403.8 7683.67 389.738 7674.07 375.438 7664.95 360.973 7656.17 346.33 7647.84 331.574 7639.83 316.658 7632.28 301.544 7625.05 286.315 7618.26 270.907 7611.9 255.454 7605.85 239.841 7600.24 224.11 7595.02 208.276 7590.21 192.328 7585.78 176.324 7581.74 160.24 7578.1 144.037 7574.85 127.832 7571.98 111.495 7569.51 95.1658 7567.42 78.7149 7565.79 62.316 7564.5 45.9059 7563.58 29.3901 7563.13 12.9258 7563-3.60114 7563.32-20.0651 7563.97-36.5279 7565.08-52.9883 7566.51-69.4514 7568.41-85.909 7570.68-102.188 7573.28-118.518 7576.35-134.842 7579.8-151.058 7583.63-167.082 7587.79-183.153 7592.43-199.154 7597.44-215.038 7602.84-230.788 7608.63-246.469 7614.82-262.034 7621.4-277.465 7628.37-292.783 7635.72-307.882 7643.47-322.909 7651.61-337.758 7660.16-352.509 7669.15-367.044 7678.44-381.342 7688.13-395.452 7698.22-409.448 7708.72-423.208 7719.67-436.824 7730.91-450.077 7742.56-463.225 7754.68-476.126 7767.29-488.941 7780.26-500.928 7793.08-512.659 7806.33-524.156 7819.72-535.271 7833.4-546.021 7847.26-556.368 7861.32-566.328 7875.62-575.927 7890.09-585.049 7904.73-593.835 7919.49-602.156 7934.4-610.167 7949.52-617.724 7964.75-624.948 7980.16-631.738 7995.61-638.101 8011.22-644.151 8026.95-649.765 8042.79-654.977 8058.73-659.795 8074.74-664.218 8090.82-668.255 8107.03-671.9 8123.22-675.152 8139.5-678.016 8155.83-680.49 8172.29-682.579 8188.68-684.206 8205.09-685.503 8221.61-686.417 8238.14-686.872 8254.6-687.002 8271.06-686.677 8287.53-686.026 8303.99-684.92 8320.45-683.489 8336.91-681.595 8353.19-679.325 8369.53-676.721 8385.79-673.651 8401.98-670.204 8418.08-666.374 8434.09-662.21 8450.16-657.573 8465.99-652.555 8481.73-647.159 8497.41-641.368 8512.99-635.173 8528.36-628.596 8543.64-621.64 8558.82-614.276 8573.81-606.523 8588.66-598.381 8603.34-589.829 8617.86-580.849 8632.13-571.571 8646.33-561.867 8660.28-551.758 8674.05-541.257 8687.57-530.333 8700.89-519.093 8714-507.419 8726.88-495.323 8739.64-482.752 8763.29-457.425 8785.44-431.369 8806.15-404.477 8825.36-376.74 8843.06-348.364 8859.28-319.306 8873.95-289.653 8887.08-259.474 8898.81-228.853 8908.91-197.715 8917.56-166.352 8924.67-134.624 8930.26-102.613 8934.36-70.5374 8936.96-38.2363 8938.01-5.87457 8937.55 26.5237 8935.6 58.8224 8932.08 91.0522 8927.07 123.129 8920.56 154.977 8912.49 186.536 8902.98 217.798 8891.84 248.673 8879.28 279.073 8865.13 308.989 8849.45 338.343 8832.33 367.048 8813.63 395.126 8793.38 422.478 8785.52 432.052 8743.01 397.161 8750.43 388.117 8749.59 389.197 8769.02 362.947 8768.24 364.07 8786.17 337.133 8785.44 338.289 8801.88 310.727 8801.25 311.852 8816.31 283.664 8815.7 284.871 8829.26 256.184 8828.71 257.434 8840.77 228.246 8840.32 229.418 8851.01 199.793 8850.57 201.122 8859.69 171.122 8859.36 172.313 8867.11 142 8866.81 143.303 8873.06 112.74 8872.83 114.006 8877.64 83.1936 8877.47 84.455 8880.85 53.5175 8880.74 54.8395 8882.61 23.8395 8882.57 25.1133 8883-6.01172 8883.01-4.74036 8882.01-35.8029 8882.09-34.4772 8879.59-65.4771 8879.72-64.2018 8875.78-95.0143 8875.97-93.7651 8870.6-124.515 8870.85-123.244 8864.04-153.681 8864.37-152.373 8856.05-182.498 8856.4-181.33 8846.72-211.205 8847.19-209.852 8835.94-239.227 8836.41-238.086 8823.79-267.086 8824.35-265.873 8810.29-294.31 8810.93-293.095 8795.36-320.97 8796.04-319.819 8779.04-347.069 8779.77-345.969 8761.33-372.594 8762.15-371.473 8742.27-397.285 8743.11-396.248 8721.8-421.31 8722.65-420.36 8699.83-444.797 8700.64-443.966 8688.52-455.904 8688.98-455.457 8676.61-467.082 8677.15-466.588 8664.59-477.776 8665.14-477.296 8652.33-488.109 8652.78-487.732 8639.78-498.232 8640.38-497.763 8627.19-507.825 8627.74-507.416 8614.37-517.104 8614.98-516.672 8601.36-525.984 8601.89-525.63 8588.14-534.568 8588.65-534.241 8574.72-542.866 8575.35-542.485 8561.29-550.672 8561.9-550.324 8547.65-558.136 8548.24-557.826 8533.86-565.263 8534.5-564.944 8519.94-572.007 8520.54-571.722 8505.85-578.41 8506.43-578.156 8491.68-584.468 8492.34-584.195 8477.4-590.133 8478.04-589.891 8462.97-595.453 8463.58-595.238 8448.45-600.425 8449.07-600.222 8433.88-605.035 8434.56-604.829 8419.19-609.266 8419.89-609.074 8404.51-613.074 8405.07-612.934 8389.57-616.622 8390.21-616.478 8374.65-619.79 8375.27-619.665 8359.71-622.602 8360.48-622.468 8344.8-624.968 8345.33-624.889 8329.64-627.076 8330.29-626.993 8314.54-628.805 8315.31-628.729 8299.49-630.104 8300.03-630.062 8284.22-631.125 8284.98-631.084 8269.16-631.709 8269.71-631.693 8253.89-632.006 8254.66-632.001 8238.84-631.876 8239.38-631.886 8223.51-631.448 8224.27-631.48 8208.46-630.605 8209.1-630.648 8193.29-629.398 8193.84-629.447 8178.09-627.885 8178.84-627.969 8163.09-625.969 8163.74-626.06 8148.05-623.685 8148.7-623.791 8133.08-621.041 8133.73-621.163 8118.16-618.038 8118.78-618.17 8103.22-614.67 8103.88-614.828 8088.45-610.953 8089.08-611.119 8073.7-606.869 8074.33-607.05 8059.01-602.425 8059.66-602.629 8044.47-597.629 8045.12-597.85 8030.05-592.475 8030.75-592.733 8015.75-586.921 8016.28-587.134 8001.41-581.009 8002.03-581.273 7987.28-574.773 7987.97-575.091 7973.35-568.154 7973.86-568.403 7959.36-561.153 7960.08-561.524 7945.76-553.836 7946.26-554.108 7932.07-546.108 7932.71-546.482 7918.65-538.044 7919.17-538.364 7905.29-529.614 7905.95-530.042 7892.26-520.855 7892.83-521.247 7879.33-511.685 7879.89-512.088 7866.58-502.151 7867.12-502.564 7853.99-492.251 7854.56-492.715 7841.69-482.028 7842.15-482.416 7829.4-471.354 7829.94-471.837 7817.44-460.399 7817.54-460.496 7805.11-448.996 7806.03-449.894 7794.1-437.769 7794.54-438.234 7782.92-425.859 7783.46-426.449 7772.27-413.824 7772.66-414.276 7761.85-401.526 7762.31-402.084 7751.81-389.021 7752.24-389.568 7742.17-376.381 7742.62-376.981 7732.93-363.543 7733.3-364.059 7723.98-350.496 7724.37-351.076 7715.43-337.326 7715.76-337.842 7707.13-323.904 7707.54-324.584 7699.35-310.459 7699.68-311.03 7691.86-296.78 7692.2-297.406 7684.76-282.969 7685.04-283.521 7677.97-269.021 7678.28-269.667 7671.59-254.98 7671.86-255.594 7665.55-240.781 7665.81-241.405 7659.87-226.467 7660.11-227.099 7654.55-212.036 7654.76-212.641 7649.58-197.516 7649.79-198.162 7644.98-182.912 7645.16-183.533 7640.73-168.221 7640.93-168.977 7636.93-153.54 7637.06-154.049 7633.37-138.611 7633.52-139.275 7630.21-123.713 7630.34-124.357 7627.4-108.732 7627.53-109.485 7625.03-93.7973 7625.11-94.3273 7622.92-78.6398 7623.01-79.2937 7621.19-63.5438 7621.27-64.3054 7619.9-48.4929 7619.94-49.0316 7618.88-33.2191 7618.92-33.9766 7618.29-18.1641 7618.31-18.7068 7617.99-2.89435 7618-3.65424 7618.12 12.2208 7618.11 11.6768 7618.55 27.4893 7618.52 26.7304 7619.4 42.5429 7619.35 41.8951 7620.6 57.7076 7620.55 57.16 7622.12 72.9099 7622.03 72.1605 7624.03 87.9106 7623.94 87.2584 7626.31 102.946 7626.21 102.314 7628.96 118.001 7628.84 117.336 7631.96 132.898 7631.83 132.278 7635.33 147.841 7635.17 147.18 7639.05 162.617 7638.88 161.985 7643.13 177.36 7642.95 176.736 7647.58 192.048 7647.37 191.4 7652.37 206.588 7652.15 205.945 7657.53 221.007 7657.27 220.313 7663.08 235.314 7662.87 234.779 7668.99 249.654 7668.73 249.035 7675.23 263.785 7674.91 263.089 7681.85 277.714 7681.6 277.201 7688.85 291.701 7688.48 290.987 7696.16 305.3 7695.89 304.805 7703.89 318.993 7703.52 318.351 7711.96 332.414 7711.64 331.893 7720.39 345.768 7719.96 345.111 7729.15 358.799 7728.75 358.229 7738.32 371.729 7737.91 371.174 7747.85 384.487 7747.44 383.947 7757.75 397.072 7757.28 396.498 7767.97 409.373 7767.58 408.915 7778.65 421.665 7778.16 421.123 7789.6 433.623 7789.15 433.142 7800.9 445.386ZM8954.06 379.619 8728.38 455.73 8773.21 221.824C8776.07 206.907 8790.48 197.133 8805.4 199.992 8820.32 202.851 8830.09 217.26 8827.23 232.177L8791.27 419.783 8755.48 388.549 8936.48 327.503C8950.87 322.649 8966.47 330.381 8971.33 344.772 8976.18 359.164 8968.45 374.765 8954.06 379.619Z"/><text font-family="Consolas,Consolas_MSFontService,sans-serif" font-weight="400" font-size="458" transform="matrix(1 0 0 1 7871.87 -146)">0/0</text><path d="M7425.5 1155.5C7425.5 699.865 7794.87 330.5 8250.5 330.5 8706.13 330.5 9075.5 699.865 9075.5 1155.5 9075.5 1611.13 8706.13 1980.5 8250.5 1980.5 7794.87 1980.5 7425.5 1611.13 7425.5 1155.5Z" stroke="#000000" stroke-width="55" stroke-miterlimit="8" fill="none" fill-rule="evenodd"/><text font-family="Consolas,Consolas_MSFontService,sans-serif" font-weight="400" font-size="458" transform="matrix(1 0 0 1 7745.83 1088)">STOP</text><text font-family="Consolas,Consolas_MSFontService,sans-serif" font-weight="400" font-size="458" transform="matrix(1 0 0 1 7871.87 1536)">000</text></g></svg>