<svg width="9550" height="7896" xmlns="http://www.w3.org/2000/svg" xmlns:xlink="http://www.w3.org/1999/xlink" xml:space="preserve" overflow="hidden"><defs><clipPath id="clip0"><rect x="1099" y="307" width="9550" height="7896"/></clipPath></defs><g clip-path="url(#clip0)" transform="translate(-1099 -307)"><path d="M3520.92 7062.37 3520.92 7809 3475.08 7809 3475.08 7062.37ZM3398 7188.33 3498 7016.89 3598 7188.33C3604.38 7199.26 3600.69 7213.29 3589.76 7219.67 3578.82 7226.05 3564.79 7222.35 3558.41 7211.42L3478.21 7073.92 3517.79 7073.92 3437.59 7211.42C3431.21 7222.35 3417.18 7226.05 3406.24 7219.67 3395.31 7213.29 3391.62 7199.26 3398 7188.33Z" fill="#6B6BF5"/><path d="M22.9167-1.04425e-05 22.917 746.625-22.9163 746.625-22.9167 1.04425e-05ZM100.004 620.672 0.000362185 792.106-100.003 620.672C-106.38 609.74-102.688 595.707-91.7551 589.33-80.8227 582.953-66.7904 586.646-60.4131 597.578L19.7953 735.078-19.7946 735.078 60.4137 597.578C66.7909 586.645 80.8232 582.953 91.7556 589.33 102.688 595.707 106.381 609.74 100.004 620.672Z" fill="#6B6BF5" transform="matrix(1 0 0 -1 2970 4641)"/><path d="M1122 4641 2970 4641" stroke="#6B6BF5" stroke-width="45.8333" stroke-miterlimit="8" fill="none" fill-rule="evenodd"/><path d="M1122 7809.25 1122 4641" stroke="#6B6BF5" stroke-width="45.8333" stroke-miterlimit="8" fill="none" fill-rule="evenodd"/><path d="M1122 7809 6666 7809" stroke="#6B6BF5" stroke-width="45.8333" stroke-miterlimit="8" fill="none" fill-rule="evenodd"/><text fill="#6B6BF5" font-family="Consolas,Consolas_MSFontService,sans-serif" font-weight="700" font-size="330" transform="matrix(1 0 0 1 6755.31 7920)">Reset, </text><text fill="#6B6BF5" font-family="Consolas,Consolas_MSFontService,sans-serif" font-weight="700" font-size="330" transform="matrix(1 0 0 1 8026.61 7920)">Clk</text><path d="M5127.38 6200.08 6666 6200.08 6666 6245.92 5127.38 6245.92ZM5253.33 6323 5081.89 6223 5253.33 6123C5264.26 6116.62 5278.29 6120.31 5284.67 6131.24 5291.05 6142.18 5287.35 6156.21 5276.42 6162.59L5138.92 6242.79 5138.92 6203.21 5276.42 6283.41C5287.35 6289.79 5291.05 6303.82 5284.67 6314.76 5278.29 6325.69 5264.26 6329.38 5253.33 6323Z"/><text font-family="Consolas,Consolas_MSFontService,sans-serif" font-weight="700" font-size="330" transform="matrix(1 0 0 1 6746.14 6335)">Run</text><path d="M22.9167-1.04425e-05 22.917 746.625-22.9163 746.625-22.9167 1.04425e-05ZM100.004 620.672 0.000362185 792.106-100.003 620.672C-106.38 609.74-102.688 595.707-91.7551 589.33-80.8227 582.953-66.7904 586.646-60.4131 597.578L19.7953 735.078-19.7946 735.078 60.4137 597.578C66.7909 586.645 80.8232 582.953 91.7556 589.33 102.688 595.707 106.381 609.74 100.004 620.672Z" fill="#EF8011" transform="matrix(1 0 0 -1 8250 4641)"/><path d="M4026 4641 8250 4641" stroke="#EF8011" stroke-width="45.8333" stroke-miterlimit="8" fill="none" fill-rule="evenodd"/><path d="M22.9167-5.22124e-06 22.917 1538.62-22.9163 1538.62-22.9167 5.22124e-06ZM100.004 1412.67 0.000356831 1584.11-100.003 1412.67C-106.38 1401.74-102.688 1387.71-91.7551 1381.33-80.8226 1374.95-66.7903 1378.65-60.4131 1389.58L19.7953 1527.08-19.7946 1527.08 60.4137 1389.58C66.791 1378.65 80.8233 1374.95 91.7557 1381.33 102.688 1387.71 106.381 1401.74 100.004 1412.67Z" fill="#EF8011" transform="matrix(1 0 0 -1 4026 5433)"/><text fill="#EF8011" font-family="Consolas,Consolas_MSFontService,sans-serif" font-weight="700" font-size="248" transform="matrix(1 0 0 1 4106.14 4537)">phase</text><text fill="#EF8011" font-family="Consolas,Consolas_MSFontService,sans-serif" font-weight="700" font-size="248" transform="matrix(1 0 0 1 4856.09 4537)">=</text><text fill="#EF8011" font-family="Consolas,Consolas_MSFontService,sans-serif" font-weight="700" font-size="248" transform="matrix(1 0 0 1 5060.62 4537)">{Mask,</text><text fill="#EF8011" font-family="Consolas,Consolas_MSFontService,sans-serif" font-weight="700" font-size="248" transform="matrix(1 0 0 1 5946.92 4537)">Shift,</text><text fill="#EF8011" font-family="Consolas,Consolas_MSFontService,sans-serif" font-weight="700" font-size="248" transform="matrix(1 0 0 1 6833.23 4537)">Add,</text><text fill="#EF8011" font-family="Consolas,Consolas_MSFontService,sans-serif" font-weight="700" font-size="248" transform="matrix(1 0 0 1 7446.82 4537)">Sub}</text><rect x="1914" y="5433" width="3168" height="1584" stroke="#000000" stroke-width="45.8333" stroke-miterlimit="8" fill="#C5C5FB"/><text font-family="Consolas,Consolas_MSFontService,sans-serif" font-weight="700" font-size="733" transform="matrix(1 0 0 1 2489.67 6476)">uCtrl</text><path d="M3520.92 3849 3520.92 5387.62 3475.08 5387.62 3475.08 3849ZM3598 5261.67 3498 5433.11 3398 5261.67C3391.62 5250.74 3395.31 5236.71 3406.24 5230.33 3417.18 5223.95 3431.21 5227.65 3437.59 5238.58L3517.8 5376.08 3478.21 5376.08 3558.41 5238.58C3564.79 5227.65 3578.82 5223.95 3589.76 5230.33 3600.69 5236.71 3604.38 5250.74 3598 5261.67Z"/><text font-family="Consolas,Consolas_MSFontService,sans-serif" font-weight="700" font-size="248" transform="matrix(1 0 0 1 3157.11 4728)">Mp</text><text font-family="Consolas,Consolas_MSFontService,sans-serif" font-weight="700" font-size="248" transform="matrix(1 0 0 1 3566.17 4728)">Mt</text><rect x="6666" y="2265" width="3168" height="1584" stroke="#000000" stroke-width="45.8333" stroke-miterlimit="8" fill="#FBE0C5"/><text font-family="Consolas,Consolas_MSFontService,sans-serif" font-weight="700" font-size="733" transform="matrix(1 0 0 1 7241.67 3308)">uComp</text><text font-family="Consolas,Consolas_MSFontService,sans-serif" font-weight="700" font-size="138" transform="matrix(1 0 0 1 9701.8 3102)">S</text><text font-family="Consolas,Consolas_MSFontService,sans-serif" font-weight="700" font-size="138" transform="matrix(1 0 0 1 8212.18 2410)">B</text><text font-family="Consolas,Consolas_MSFontService,sans-serif" font-weight="700" font-size="138" transform="matrix(1 0 0 1 6745.27 3102)">A</text><rect x="1914" y="2265" width="3168" height="1584" stroke="#000000" stroke-width="45.8333" stroke-miterlimit="8" fill="#FBC5DB"/><text font-family="Consolas,Consolas_MSFontService,sans-serif" font-weight="700" font-size="733" transform="matrix(1 0 0 1 2691.33 3143)">uReg</text><text font-family="Consolas,Consolas_MSFontService,sans-serif" font-weight="700" font-size="275" transform="matrix(1 0 0 1 2466.75 3591)">X A[7:0] B[7:0]</text><text font-family="Consolas,Consolas_MSFontService,sans-serif" font-weight="700" font-size="138" transform="matrix(1 0 0 1 3346.75 2409)">Bnew</text><text font-family="Consolas,Consolas_MSFontService,sans-serif" font-weight="700" font-size="138" transform="matrix(1 0 0 1 1970.57 3043)">Xnew</text><text font-family="Consolas,Consolas_MSFontService,sans-serif" font-weight="700" font-size="138" transform="matrix(1 0 0 1 1970.57 3171)">Anew</text><path d="M5082 3032.08 6620.62 3032.08 6620.62 3077.92 5082 3077.92ZM6494.67 2955 6666.11 3055 6494.67 3155C6483.74 3161.38 6469.71 3157.69 6463.33 3146.76 6456.95 3135.82 6460.65 3121.79 6471.58 3115.41L6609.08 3035.21 6609.08 3074.8 6471.58 2994.59C6460.65 2988.21 6456.95 2974.18 6463.33 2963.24 6469.71 2952.31 6483.74 2948.62 6494.67 2955Z"/><text font-family="Consolas,Consolas_MSFontService,sans-serif" font-weight="700" font-size="248" transform="matrix(1 0 0 1 5260.4 3352)">{A[7], A}</text><path d="M1122 3038.08 1868.63 3038.08 1868.63 3083.92 1122 3083.92ZM1742.67 2961 1914.11 3061 1742.67 3161C1731.74 3167.38 1717.71 3163.69 1711.33 3152.76 1704.95 3141.82 1708.65 3127.79 1719.58 3121.41L1857.08 3041.21 1857.08 3080.8 1719.58 3000.59C1708.65 2994.21 1704.95 2980.18 1711.33 2969.24 1717.71 2958.31 1731.74 2954.62 1742.67 2961Z"/><path d="M0 0 0.000360892 1584" stroke="#000000" stroke-width="45.8333" stroke-miterlimit="8" fill="none" fill-rule="evenodd" transform="matrix(1 0 0 -1 1122 3061)"/><path d="M0 0 9504 5.09039" stroke="#000000" stroke-width="45.8333" stroke-miterlimit="8" fill="none" fill-rule="evenodd" transform="matrix(1 0 0 -1 1122 1477.09)"/><path d="M0 0 0.000360892 1584" stroke="#000000" stroke-width="45.8333" stroke-miterlimit="8" fill="none" fill-rule="evenodd" transform="matrix(1 0 0 -1 10626 3061)"/><path d="M9834 3057 10626 3057" stroke="#000000" stroke-width="45.8333" stroke-miterlimit="8" fill="none" fill-rule="evenodd"/><text font-family="Consolas,Consolas_MSFontService,sans-serif" font-weight="700" font-size="248" transform="matrix(1 0 0 1 5055.87 1368)">{</text><text font-family="Consolas,Consolas_MSFontService,sans-serif" font-weight="700" font-size="248" transform="matrix(1 0 0 1 5192.23 1368)">Xnew</text><text font-family="Consolas,Consolas_MSFontService,sans-serif" font-weight="700" font-size="248" transform="matrix(1 0 0 1 5737.64 1368)">, Anew}</text><path d="M8272.92 1873 8272.92 2223.62 8227.08 2223.62 8227.08 1873ZM8350 2097.67 8250 2269.11 8150 2097.67C8143.62 2086.74 8147.31 2072.71 8158.24 2066.33 8169.18 2059.95 8183.21 2063.65 8189.59 2074.58L8269.79 2212.08 8230.21 2212.08 8310.41 2074.58C8316.79 2063.65 8330.82 2059.95 8341.76 2066.33 8352.69 2072.71 8356.38 2086.74 8350 2097.67Z" fill="#EF116B"/><path d="M3498 1873 8250 1873" stroke="#EF116B" stroke-width="45.8333" stroke-miterlimit="8" fill="none" fill-rule="evenodd"/><path d="M3520.92 879 3520.92 2219.62 3475.08 2219.62 3475.08 879ZM3598 2093.67 3498 2265.11 3398 2093.67C3391.62 2082.74 3395.31 2068.71 3406.24 2062.33 3417.18 2055.95 3431.21 2059.65 3437.59 2070.58L3517.8 2208.08 3478.21 2208.08 3558.41 2070.58C3564.79 2059.65 3578.82 2055.95 3589.76 2062.33 3600.69 2068.71 3604.38 2082.74 3598 2093.67Z" fill="#EF116B"/><text fill="#EF116B" font-family="Consolas,Consolas_MSFontService,sans-serif" font-weight="700" font-size="248" transform="matrix(1 0 0 1 5124.05 2144)">{</text><text fill="#EF116B" font-family="Consolas,Consolas_MSFontService,sans-serif" font-weight="700" font-size="248" transform="matrix(1 0 0 1 5260.4 2144)">SW[</text><text fill="#EF116B" font-family="Consolas,Consolas_MSFontService,sans-serif" font-weight="700" font-size="248" transform="matrix(1 0 0 1 5669.46 2144)">7], </text><text fill="#EF116B" font-family="Consolas,Consolas_MSFontService,sans-serif" font-weight="700" font-size="248" transform="matrix(1 0 0 1 6214.88 2144)">SW}</text><text fill="#EF116B" font-family="Consolas,Consolas_MSFontService,sans-serif" font-weight="700" font-size="367" transform="matrix(1 0 0 1 2792.16 763)">SW[7:0]</text></g></svg>