<?xml version="1.0" standalone="no"?>
<!DOCTYPE svg PUBLIC "-//W3C//DTD SVG 1.1//EN" "https://www.w3.org/Graphics/SVG/1.1/DTD/svg11.dtd">

<svg width="800" height="700" version="1.1" xmlns="http://www.w3.org/2000/svg">
	<!-- State FD -->
	<ellipse stroke="black" stroke-width="1" fill="none" cx="350" cy="100" rx="30" ry="30"/>
	<ellipse stroke="black" stroke-width="1" fill="none" cx="250" cy="100" rx="30" ry="30"/>
	<ellipse stroke="black" stroke-width="1" fill="none" cx="150" cy="100" rx="30" ry="30"/>
	<ellipse stroke="black" stroke-width="1" fill="none" cx="150" cy="200" rx="30" ry="30"/>
	<ellipse stroke="black" stroke-width="1" fill="none" cx="250" cy="200" rx="30" ry="30"/>
	<ellipse stroke="black" stroke-width="1" fill="none" cx="350" cy="200" rx="30" ry="30"/>
	<text x="326" y="106" font-family="Times New Roman" font-size="20">FCH1</text>
	<text x="223" y="105" font-family="Times New Roman" font-size="17">FCH2w</text>
	<text x="124" y="106" font-family="Times New Roman" font-size="18">FCH2x</text>
	<text x="126" y="206" font-family="Times New Roman" font-size="20">FCH2</text>
	<text x="226" y="206" font-family="Times New Roman" font-size="20">FCH3</text>
	<text x="330" y="206" font-family="Times New Roman" font-size="20">DEC</text>
	<text x="366" y="72"  font-family="Times New Roman" font-size="15">18</text>
	<text x="266" y="72"  font-family="Times New Roman" font-size="15">37</text>
	<text x="166" y="72"  font-family="Times New Roman" font-size="15">39</text>
	<text x="166" y="172" font-family="Times New Roman" font-size="15">33</text>
	<text x="266" y="172" font-family="Times New Roman" font-size="15">35</text>
	<text x="366" y="172" font-family="Times New Roman" font-size="15">32</text>
	<!-- State AAN -->
	<ellipse stroke="black" stroke-width="1" fill="none" cx="150" cy="300" rx="30" ry="30"/>
	<ellipse stroke="black" stroke-width="1" fill="none" cx="150" cy="400" rx="30" ry="30"/>
	<ellipse stroke="black" stroke-width="1" fill="none" cx="150" cy="500" rx="30" ry="30"/>
	<text x="128" y="306" font-family="Times New Roman" font-size="20">ADD</text>
	<text x="128" y="406" font-family="Times New Roman" font-size="20">AND</text>
	<text x="129" y="506" font-family="Times New Roman" font-size="20">NOT</text>
	<text x="173" y="272" font-family="Times New Roman" font-size="15">1</text>
	<text x="168" y="367" font-family="Times New Roman" font-size="15">5</text>
	<text x="178" y="477" font-family="Times New Roman" font-size="15">9</text>
	<!-- State LS -->
	<ellipse stroke="black" stroke-width="1" fill="none" cx="300" cy="400" rx="30" ry="30"/>
	<ellipse stroke="black" stroke-width="1" fill="none" cx="250" cy="500" rx="30" ry="30"/>
	<ellipse stroke="black" stroke-width="1" fill="none" cx="350" cy="500" rx="30" ry="30"/>
	<ellipse stroke="black" stroke-width="1" fill="none" cx="350" cy="600" rx="30" ry="30"/>
	<ellipse stroke="black" stroke-width="1" fill="none" cx="250" cy="600" rx="30" ry="30"/>
	<ellipse stroke="black" stroke-width="1" fill="none" cx="400" cy="400" rx="30" ry="30"/>
	<ellipse stroke="black" stroke-width="1" fill="none" cx="450" cy="500" rx="30" ry="30"/>
	<ellipse stroke="black" stroke-width="1" fill="none" cx="450" cy="600" rx="30" ry="30"/>
	<text x="275" y="406" font-family="Times New Roman" font-size="20">LDR1</text>
	<text x="223" y="505" font-family="Times New Roman" font-size="17">LDR2w</text>
	<text x="323" y="506" font-family="Times New Roman" font-size="18">LDR2x</text>
	<text x="325" y="606" font-family="Times New Roman" font-size="20">LDR2</text>
	<text x="225" y="606" font-family="Times New Roman" font-size="20">LDR3</text>
	<text x="377" y="406" font-family="Times New Roman" font-size="20">STR1</text>
	<text x="427" y="506" font-family="Times New Roman" font-size="20">STR2</text>
	<text x="427" y="606" font-family="Times New Roman" font-size="20">STR3</text>
	<text x="323" y="372" font-family="Times New Roman" font-size="15">6</text>
	<text x="274" y="480" font-family="Times New Roman" font-size="15">29</text>
	<text x="366" y="472" font-family="Times New Roman" font-size="15">31</text>
	<text x="366" y="572" font-family="Times New Roman" font-size="15">25</text>
	<text x="266" y="572" font-family="Times New Roman" font-size="15">27</text>
	<text x="423" y="372" font-family="Times New Roman" font-size="15">7</text>
	<text x="466" y="472" font-family="Times New Roman" font-size="15">23</text>
	<text x="466" y="572" font-family="Times New Roman" font-size="15">16</text>
	<!-- State BJ -->
	<ellipse stroke="black" stroke-width="1" fill="none" cx="550" cy="500" rx="30" ry="30"/>
	<ellipse stroke="black" stroke-width="1" fill="none" cx="550" cy="400" rx="30" ry="30"/>
	<ellipse stroke="black" stroke-width="1" fill="none" cx="650" cy="400" rx="30" ry="30"/>
	<ellipse stroke="black" stroke-width="1" fill="none" cx="550" cy="300" rx="30" ry="30"/>
	<ellipse stroke="black" stroke-width="1" fill="none" cx="650" cy="300" rx="30" ry="30"/>
	<text x="532" y="506" font-family="Times New Roman" font-size="20">JMP</text>
	<text x="529" y="406" font-family="Times New Roman" font-size="20">JSR1</text>
	<text x="629" y="406" font-family="Times New Roman" font-size="20">JSR2</text>
	<text x="532" y="306" font-family="Times New Roman" font-size="20">BR1</text>
	<text x="632" y="306" font-family="Times New Roman" font-size="20">BR2</text>
	<text x="566" y="472" font-family="Times New Roman" font-size="15">12</text>
	<text x="573" y="372" font-family="Times New Roman" font-size="15">4</text>
	<text x="666" y="372" font-family="Times New Roman" font-size="15">21</text>
	<text x="573" y="272" font-family="Times New Roman" font-size="15">0</text>
	<text x="666" y="272" font-family="Times New Roman" font-size="15">22</text>
	<!-- State PH -->
	<ellipse stroke="black" stroke-width="1" fill="none" cx="550" cy="200" rx="30" ry="30"/>
	<ellipse stroke="black" stroke-width="1" fill="none" cx="650" cy="200" rx="30" ry="30"/>
	<ellipse stroke="black" stroke-width="1" fill="none" cx="550" cy="100" rx="30" ry="30"/>
	<text x="528" y="206" font-family="Times New Roman" font-size="20">PSE1</text>
	<text x="628" y="206" font-family="Times New Roman" font-size="20">PSE2</text>
	<text x="524" y="106" font-family="Times New Roman" font-size="20">HALT</text>
	<text x="574" y="180" font-family="Times New Roman" font-size="15">61</text>
	<text x="674" y="180" font-family="Times New Roman" font-size="15">62</text>
	<text x="574" y="80"  font-family="Times New Roman" font-size="15">63</text>
	<!-- Transition FD -->
	<polygon stroke="black" stroke-width="1" points="350,30  350,70"/>
	<polygon stroke="black" stroke-width="1" points="320,100 280,100"/>
	<polygon stroke="black" stroke-width="1" points="220,100 180,100"/>
	<polygon stroke="black" stroke-width="1" points="150,130 150,170"/>
	<polygon stroke="black" stroke-width="1" points="180,200 220,200"/>
	<polygon stroke="black" stroke-width="1" points="280,200 320,200"/>
	<polygon fill="black" stroke-width="1" points="350,70  355,62  345,62"/>
	<polygon fill="black" stroke-width="1" points="280,100 288,105 288,95"/>
	<polygon fill="black" stroke-width="1" points="180,100 188,105 188,95"/>
	<polygon fill="black" stroke-width="1" points="150,170 155,162 145,162"/>
	<polygon fill="black" stroke-width="1" points="220,200 212,195 212,205"/>
	<polygon fill="black" stroke-width="1" points="320,200 312,195 312,205"/>
	<text x="320" y="20" font-family="Times New Roman" font-size="20">START</text>
	<!-- Transition Broadcast -->
	<polygon stroke="black" stroke-width="1" points="323.667,213.916 177.333,287.084"/>
	<polygon stroke="black" stroke-width="1" points="329.287,221.713 171.713,379.287"/>
	<polygon stroke="black" stroke-width="1" points="333.859,225.462 167.141,475.538"/>
	<polygon stroke="black" stroke-width="1" points="343.224,229.604 307.776,371.396"/>
	<polygon stroke="black" stroke-width="1" points="357.776,229.604 393.224,371.396"/>
	<polygon stroke="black" stroke-width="1" points="367.141,225.462 533.859,475.538"/>
	<polygon stroke="black" stroke-width="1" points="371.713,221.713 529.287,379.287"/>
	<polygon stroke="black" stroke-width="1" points="377.333,213.916 523.667,287.084"/>
	<polygon stroke="black" stroke-width="1" points="377.333,187.084 523.667,113.916"/>
	<polygon stroke="black" stroke-width="1" points="380,200 520,200"/>
	<polygon fill="black" stroke-width="1" points="177.333,287.084 186.724,287.978 182.252,279.034"/>
	<polygon fill="black" stroke-width="1" points="171.713,379.287 180.906,377.165 173.835,370.094"/>
	<polygon fill="black" stroke-width="1" points="167.141,475.538 175.739,471.656 167.418,466.109"/>
	<polygon fill="black" stroke-width="1" points="307.776,371.396 314.567,364.847 304.866,362.422"/>
	<polygon fill="black" stroke-width="1" points="393.224,371.396 396.134,362.422 386.433,364.847"/>
	<polygon fill="black" stroke-width="1" points="533.859,475.538 533.582,466.109 525.261,471.656"/>
	<polygon fill="black" stroke-width="1" points="529.287,379.287 527.165,370.094 520.094,377.165"/>
	<polygon fill="black" stroke-width="1" points="523.667,287.084 518.748,279.034 514.276,287.978"/>
	<polygon fill="black" stroke-width="1" points="523.667,113.916 514.276,113.022 518.748,121.966"/>
	<polygon fill="black" stroke-width="1" points="520,200 512,195 512,205"/>
	<!-- Transition AAN -->
	<polygon stroke="black" stroke-width="1" points="120,300 80,300"/>
	<polygon stroke="black" stroke-width="1" points="120,400 80,400"/>
	<polygon stroke="black" stroke-width="1" points="120,500 80,500"/>
	<polygon fill="black" stroke-width="1" points="80,300 88,305 88,295"/>
	<polygon fill="black" stroke-width="1" points="80,400 88,405 88,395"/>
	<polygon fill="black" stroke-width="1" points="80,500 88,505 88,495"/>
	<text x="0" y="306" font-family="Times New Roman" font-size="20">To FCH1</text>
	<text x="0" y="406" font-family="Times New Roman" font-size="20">To FCH1</text>
	<text x="0" y="506" font-family="Times New Roman" font-size="20">To FCH1</text>
	<!-- Transition LS -->
	<polygon stroke="black" stroke-width="1" points="287.084,427.333 263.916,473.667"/>
	<polygon stroke="black" stroke-width="1" points="413.916,427.333 437.084,473.667"/>
	<polygon stroke="black" stroke-width="1" points="280,500 320,500"/>
	<polygon stroke="black" stroke-width="1" points="350,530 350,570"/>
	<polygon stroke="black" stroke-width="1" points="320,600 280,600"/>
	<polygon stroke="black" stroke-width="1" points="250,630 250,670"/>
	<polygon stroke="black" stroke-width="1" points="450,530 450,570"/>
	<polygon stroke="black" stroke-width="1" points="450,630 450,670"/>
	<polygon fill="black" stroke-width="1" points="263.916,473.667 271.966,468.748 263.022,464.276"/>
	<polygon fill="black" stroke-width="1" points="437.084,473.667 437.978,464.276 429.034,468.748"/>
	<polygon fill="black" stroke-width="1" points="320,500 312,495 312,505"/>
	<polygon fill="black" stroke-width="1" points="350,570 355,562 345,562"/>
	<polygon fill="black" stroke-width="1" points="280,600 288,605 288,595"/>
	<polygon fill="black" stroke-width="1" points="250,670 255,662 245,662"/>
	<polygon fill="black" stroke-width="1" points="450,570 455,562 445,562"/>
	<polygon fill="black" stroke-width="1" points="450,670 455,662 445,662"/>
	<text x="213" y="693" font-family="Times New Roman" font-size="20">To FCH1</text>
	<text x="413" y="693" font-family="Times New Roman" font-size="20">To FCH1</text>
	<!-- Transition BJ -->
	<polygon stroke="black" stroke-width="1" points="580,500 720,500"/>
	<polygon stroke="black" stroke-width="1" points="580,400 620,400"/>
	<polygon stroke="black" stroke-width="1" points="680,400 720,400"/>
	<polygon stroke="black" stroke-width="1" points="580,300 620,300"/>
	<polygon stroke="black" stroke-width="1" points="680,300 720,300"/>
	<polygon stroke="black" stroke-width="1" points="529.287,279.287 371.713,121.713"/>
	<polygon fill="black" stroke-width="1" points="720,500 712,495 712,505"/>
	<polygon fill="black" stroke-width="1" points="620,400 612,395 612,405"/>
	<polygon fill="black" stroke-width="1" points="720,400 712,395 712,405"/>
	<polygon fill="black" stroke-width="1" points="620,300 612,295 612,305"/>
	<polygon fill="black" stroke-width="1" points="720,300 712,295 712,305"/>
	<polygon fill="black" stroke-width="1" points="371.713,121.713 373.835,130.906 380.906,123.835"/>
	<text x="726" y="506" font-family="Times New Roman" font-size="20">To FCH1</text>
	<text x="726" y="406" font-family="Times New Roman" font-size="20">To FCH1</text>
	<text x="726" y="306" font-family="Times New Roman" font-size="20">To FCH1</text>
	<!-- Transition PH -->
	<polygon stroke="black" stroke-width="1" points="580,200 620,200"/>
	<polygon stroke="black" stroke-width="1" points="680,200 720,200"/>
	<polygon stroke="black" stroke-width="1" points="520,100 380,100"/>
	<polygon fill="black" stroke-width="1" points="620,200 612,195 612,205"/>
	<polygon fill="black" stroke-width="1" points="720,200 712,195 712,205"/>
	<polygon fill="black" stroke-width="1" points="380,100 388,105 388,95"/>
	<polygon fill="black" stroke-width="1" points="563.725,173.703 572.473,170.17 564.382,164.292"/>
	<polygon fill="black" stroke-width="1" points="663.725,173.703 672.473,170.17 664.382,164.292"/>
	<polygon fill="black" stroke-width="1" points="563.725,73.703  572.473,70.17  564.382,64.292"/>
	<path stroke="black" stroke-width="1" fill="none" d="M 537.275,173.703 A 22,22 0 1 1 563.725,173.703"/>
	<path stroke="black" stroke-width="1" fill="none" d="M 637.275,173.703 A 22,22 0 1 1 663.725,173.703"/>
	<path stroke="black" stroke-width="1" fill="none" d="M 537.275,73.703  A 22,22 0 1 1 563.725,73.703"/>
	<text x="726" y="206" font-family="Times New Roman" font-size="20">To FCH1</text>
	<!-- Transition Conditions -->
	<text x="205" y="285" font-family="Times New Roman" font-size="16">0001</text>
	<text x="205" y="360" font-family="Times New Roman" font-size="16">0101</text>
	<text x="205" y="430" font-family="Times New Roman" font-size="16">1001</text>
	<text x="282" y="340" font-family="Times New Roman" font-size="16">0110</text>
	<text x="388" y="340" font-family="Times New Roman" font-size="16">0111</text>
	<text x="465" y="430" font-family="Times New Roman" font-size="16">1100</text>
	<text x="465" y="360" font-family="Times New Roman" font-size="16">0100</text>
	<text x="465" y="285" font-family="Times New Roman" font-size="16">0000</text>
	<text x="465" y="195" font-family="Times New Roman" font-size="16">1011</text>
	<text x="465" y="125" font-family="Times New Roman" font-size="16">1111</text>
	<text x="583" y="320" font-family="Times New Roman" font-size="16">BEN</text>
	<text x="508" y="260" font-family="Times New Roman" font-size="16">'BEN</text>
	<text x="571" y="145" font-family="Times New Roman" font-size="14">'CONT</text>
	<text x="581" y="220" font-family="Times New Roman" font-size="14">CONT</text>
	<text x="671" y="145" font-family="Times New Roman" font-size="14">CONT</text>
	<text x="681" y="220" font-family="Times New Roman" font-size="14">'CONT</text>
	<text x="532" y="30"  font-family="Times New Roman" font-size="16">'RUN</text>
	<text x="434" y="95"  font-family="Times New Roman" font-size="16">RUN</text>
</svg>
