<svg width="15122" height="7936" xmlns="http://www.w3.org/2000/svg" xmlns:xlink="http://www.w3.org/1999/xlink" xml:space="preserve" overflow="hidden"><defs><clipPath id="clip0"><rect x="1099" y="267" width="15122" height="7936"/></clipPath></defs><g clip-path="url(#clip0)" transform="translate(-1099 -267)"><path d="M3520.92 7062.37 3520.92 7809 3475.08 7809 3475.08 7062.37ZM3398 7188.33 3498 7016.89 3598 7188.33C3604.38 7199.26 3600.69 7213.29 3589.76 7219.67 3578.82 7226.05 3564.79 7222.35 3558.41 7211.42L3478.21 7073.92 3517.79 7073.92 3437.59 7211.42C3431.21 7222.35 3417.18 7226.05 3406.24 7219.67 3395.31 7213.29 3391.62 7199.26 3398 7188.33Z" fill="#149FEC"/><path d="M22.9167-1.04425e-05 22.917 746.625-22.9163 746.625-22.9167 1.04425e-05ZM100.004 620.672 0.000362185 792.106-100.003 620.672C-106.38 609.74-102.688 595.707-91.7551 589.33-80.8227 582.953-66.7904 586.646-60.4131 597.578L19.7953 735.078-19.7946 735.078 60.4137 597.578C66.7909 586.645 80.8232 582.953 91.7556 589.33 102.688 595.707 106.381 609.74 100.004 620.672Z" fill="#149FEC" transform="matrix(1 0 0 -1 2970 4641)"/><path d="M1122 4641 2970 4641" stroke="#149FEC" stroke-width="45.8333" stroke-miterlimit="8" fill="none" fill-rule="evenodd"/><path d="M1122 7809.25 1122 4641" stroke="#149FEC" stroke-width="45.8333" stroke-miterlimit="8" fill="none" fill-rule="evenodd"/><path d="M1122 7809 6666 7809" stroke="#149FEC" stroke-width="45.8333" stroke-miterlimit="8" fill="none" fill-rule="evenodd"/><text fill="#149FEC" font-family="Consolas,Consolas_MSFontService,sans-serif" font-weight="700" font-size="330" transform="matrix(1 0 0 1 6755.31 7920)">Reset</text><text font-family="Consolas,Consolas_MSFontService,sans-serif" font-weight="700" font-size="330" transform="matrix(1 0 0 1 7663.38 7920)">,</text><text fill="#9954CC" font-family="Consolas,Consolas_MSFontService,sans-serif" font-weight="700" font-size="330" transform="matrix(1 0 0 1 8026.61 7920)">Clk</text><path d="M5127.38 6200.08 6666 6200.08 6666 6245.92 5127.38 6245.92ZM5253.33 6323 5081.89 6223 5253.33 6123C5264.26 6116.62 5278.29 6120.31 5284.67 6131.24 5291.05 6142.18 5287.35 6156.21 5276.42 6162.59L5138.92 6242.79 5138.92 6203.21 5276.42 6283.41C5287.35 6289.79 5291.05 6303.82 5284.67 6314.76 5278.29 6325.69 5264.26 6329.38 5253.33 6323Z" fill="#149FEC"/><text fill="#149FEC" font-family="Consolas,Consolas_MSFontService,sans-serif" font-weight="700" font-size="330" transform="matrix(1 0 0 1 6746.14 6335)">Run</text><path d="M22.9167-1.04425e-05 22.917 746.625-22.9163 746.625-22.9167 1.04425e-05ZM100.004 620.672 0.000362185 792.106-100.003 620.672C-106.38 609.74-102.688 595.707-91.7551 589.33-80.8227 582.953-66.7904 586.646-60.4131 597.578L19.7953 735.078-19.7946 735.078 60.4137 597.578C66.7909 586.645 80.8232 582.953 91.7556 589.33 102.688 595.707 106.381 609.74 100.004 620.672Z" fill="#8BA61A" transform="matrix(1 0 0 -1 13002 4641)"/><path d="M4026 4641 13002 4641" stroke="#8BA61A" stroke-width="45.8333" stroke-miterlimit="8" fill="none" fill-rule="evenodd"/><path d="M22.9167-5.22124e-06 22.917 1538.62-22.9163 1538.62-22.9167 5.22124e-06ZM100.004 1412.67 0.000356831 1584.11-100.003 1412.67C-106.38 1401.74-102.688 1387.71-91.7551 1381.33-80.8226 1374.95-66.7903 1378.65-60.4131 1389.58L19.7953 1527.08-19.7946 1527.08 60.4137 1389.58C66.791 1378.65 80.8233 1374.95 91.7557 1381.33 102.688 1387.71 106.381 1401.74 100.004 1412.67Z" fill="#8BA61A" transform="matrix(1 0 0 -1 4026 5433)"/><text fill="#8BA61A" font-family="Consolas,Consolas_MSFontService,sans-serif" font-weight="700" font-size="330" transform="matrix(1 0 0 1 4129.71 4968)">Load</text><rect x="1914" y="5433" width="3168" height="1584" stroke="#000000" stroke-width="45.8333" stroke-miterlimit="8" fill="#C6E7FA"/><text font-family="Consolas,Consolas_MSFontService,sans-serif" font-weight="700" font-size="733" transform="matrix(1 0 0 1 2893 6476)">FSM</text><rect x="11418" y="2265" width="3168" height="1584" stroke="#000000" stroke-width="45.8333" stroke-miterlimit="8" fill="#DCEE92"/><text font-family="Consolas,Consolas_MSFontService,sans-serif" font-weight="700" font-size="733" transform="matrix(1 0 0 1 11993.7 3308)">MUX17</text><rect x="6666" y="2265" width="3168" height="1584" stroke="#000000" stroke-width="45.8333" stroke-miterlimit="8" fill="#FFE781"/><text font-family="Consolas,Consolas_MSFontService,sans-serif" font-weight="700" font-size="495" transform="matrix(1 0 0 1 7569.66 2773)">CRA16</text><text font-family="Consolas,Consolas_MSFontService,sans-serif" font-weight="700" font-size="495" transform="matrix(1 0 0 1 7569.66 3234)">CSA16</text><text font-family="Consolas,Consolas_MSFontService,sans-serif" font-weight="700" font-size="495" transform="matrix(1 0 0 1 7569.66 3680)">CLA16</text><rect x="1914" y="2265" width="3168" height="1584" stroke="#000000" stroke-width="45.8333" stroke-miterlimit="8" fill="#F9C7C7"/><text font-family="Consolas,Consolas_MSFontService,sans-serif" font-weight="700" font-size="733" transform="matrix(1 0 0 1 2489.67 3308)">Reg17</text><path d="M9834 3232.08 11372.6 3232.08 11372.6 3277.92 9834 3277.92ZM11246.7 3155 11418.1 3255 11246.7 3355C11235.7 3361.38 11221.7 3357.69 11215.3 3346.76 11209 3335.82 11212.6 3321.79 11223.6 3315.41L11361.1 3235.21 11361.1 3274.8 11223.6 3194.59C11212.6 3188.21 11209 3174.18 11215.3 3163.24 11221.7 3152.31 11235.7 3148.62 11246.7 3155Z"/><text font-family="Consolas,Consolas_MSFontService,sans-serif" font-weight="700" font-size="248" transform="matrix(1 0 0 1 10012.4 3551)">sum[16:0]</text><path d="M5082 3232.08 6620.62 3232.08 6620.62 3277.92 5082 3277.92ZM6494.67 3155 6666.11 3255 6494.67 3355C6483.74 3361.38 6469.71 3357.69 6463.33 3346.76 6456.95 3335.82 6460.65 3321.79 6471.58 3315.41L6609.08 3235.21 6609.08 3274.8 6471.58 3194.59C6460.65 3188.21 6456.95 3174.18 6463.33 3163.24 6469.71 3152.31 6483.74 3148.62 6494.67 3155Z"/><text font-family="Consolas,Consolas_MSFontService,sans-serif" font-weight="700" font-size="248" transform="matrix(1 0 0 1 5192.23 3551)">rout[16:0]</text><path d="M1122 3038.08 1868.63 3038.08 1868.63 3083.92 1122 3083.92ZM1742.67 2961 1914.11 3061 1742.67 3161C1731.74 3167.38 1717.71 3163.69 1711.33 3152.76 1704.95 3141.82 1708.65 3127.79 1719.58 3121.41L1857.08 3041.21 1857.08 3080.8 1719.58 3000.59C1708.65 2994.21 1704.95 2980.18 1711.33 2969.24 1717.71 2958.31 1731.74 2954.62 1742.67 2961Z"/><path d="M0 0 0.000360892 1584" stroke="#000000" stroke-width="45.8333" stroke-miterlimit="8" fill="none" fill-rule="evenodd" transform="matrix(1 0 0 -1 1122 3061)"/><path d="M0 0 14256 5.09039" stroke="#000000" stroke-width="45.8333" stroke-miterlimit="8" fill="none" fill-rule="evenodd" transform="matrix(1 0 0 -1 1122 1477.09)"/><path d="M0 0 0.000360892 1584" stroke="#000000" stroke-width="45.8333" stroke-miterlimit="8" fill="none" fill-rule="evenodd" transform="matrix(1 0 0 -1 15378 3061)"/><path d="M14586 3061 15378 3061" stroke="#000000" stroke-width="45.8333" stroke-miterlimit="8" fill="none" fill-rule="evenodd"/><text font-family="Consolas,Consolas_MSFontService,sans-serif" font-weight="700" font-size="248" transform="matrix(1 0 0 1 10012.4 1313)">rin</text><text font-family="Consolas,Consolas_MSFontService,sans-serif" font-weight="700" font-size="248" transform="matrix(1 0 0 1 10421.5 1313)">[16:0]</text><path d="M10626 2836.08 11372.6 2836.08 11372.6 2881.92 10626 2881.92ZM11246.7 2759 11418.1 2859 11246.7 2959C11235.7 2965.38 11221.7 2961.69 11215.3 2950.76 11209 2939.82 11212.6 2925.79 11223.6 2919.41L11361.1 2839.21 11361.1 2878.8 11223.6 2798.59C11212.6 2792.21 11209 2778.18 11215.3 2767.24 11221.7 2756.31 11235.7 2752.62 11246.7 2759Z" fill="#EC5454"/><path d="M10626 1869 10626 2859" stroke="#EC5454" stroke-width="45.8333" stroke-miterlimit="8" fill="none" fill-rule="evenodd"/><path d="M5874 1873 10626 1873" stroke="#EC5454" stroke-width="45.8333" stroke-miterlimit="8" fill="none" fill-rule="evenodd"/><path d="M5874 2836.08 6620.63 2836.08 6620.63 2881.92 5874 2881.92ZM6494.67 2759 6666.11 2859 6494.67 2959C6483.74 2965.38 6469.71 2961.69 6463.33 2950.76 6456.95 2939.82 6460.65 2925.79 6471.58 2919.41L6609.08 2839.21 6609.08 2878.8 6471.58 2798.59C6460.65 2792.21 6456.95 2778.18 6463.33 2767.24 6469.71 2756.31 6483.74 2752.62 6494.67 2759Z" fill="#EC5454"/><path d="M5874 879 5874 2859" stroke="#EC5454" stroke-width="45.8333" stroke-miterlimit="8" fill="none" fill-rule="evenodd"/><text fill="#EC5454" font-family="Consolas,Consolas_MSFontService,sans-serif" font-weight="700" font-size="367" transform="matrix(1 0 0 1 5067.33 724)">Din[9:0]</text><text font-family="Times New Roman,Times New Roman_MSFontService,sans-serif" font-weight="400" font-size="367" transform="matrix(1 0 0 1 8019 5217)">Unmatched digits are either truncated or extended.</text><text font-family="Arial,Arial_MSFontService,sans-serif" font-weight="400" font-size="367" transform="matrix(1 0 0 1 8019 5745)">•</text><text font-family="Consolas,Consolas_MSFontService,sans-serif" font-weight="400" font-size="367" transform="matrix(1 0 0 1 8420.04 5745)">rout[15:0]</text><text font-family="Times New Roman,Times New Roman_MSFontService,sans-serif" font-weight="400" font-size="367" transform="matrix(1 0 0 1 10528.4 5745)">goes into the adder</text><text font-family="Arial,Arial_MSFontService,sans-serif" font-weight="400" font-size="367" transform="matrix(1 0 0 1 8019 6273)">•</text><text font-family="Consolas,Consolas_MSFontService,sans-serif" font-weight="400" font-size="367" transform="matrix(1 0 0 1 8420.04 6273)">sum</text><text font-family="Consolas,Consolas_MSFontService,sans-serif" font-weight="400" font-size="367" transform="matrix(1 0 0 1 9025.04 6273)">[16]</text><text font-family="Times New Roman,Times New Roman_MSFontService,sans-serif" font-weight="400" font-size="367" transform="matrix(1 0 0 1 9923.37 6273)">is the carry</text><text font-family="Times New Roman,Times New Roman_MSFontService,sans-serif" font-weight="400" font-size="367" transform="matrix(1 0 0 1 11552.2 6273)">-</text><text font-family="Times New Roman,Times New Roman_MSFontService,sans-serif" font-weight="400" font-size="367" transform="matrix(1 0 0 1 11674.2 6273)">out bit of the adder</text><text font-family="Arial,Arial_MSFontService,sans-serif" font-weight="400" font-size="367" transform="matrix(1 0 0 1 8019 6801)">•</text><text fill="#EC5454" font-family="Consolas,Consolas_MSFontService,sans-serif" font-weight="400" font-size="367" transform="matrix(1 0 0 1 8420.04 6801)">Din</text><text fill="#EC5454" font-family="Consolas,Consolas_MSFontService,sans-serif" font-weight="400" font-size="367" transform="matrix(1 0 0 1 9025.04 6801)">[9:0]</text><text font-family="Times New Roman,Times New Roman_MSFontService,sans-serif" font-weight="400" font-size="367" transform="matrix(1 0 0 1 10125 6801)">is zero</text><text font-family="Times New Roman,Times New Roman_MSFontService,sans-serif" font-weight="400" font-size="367" transform="matrix(1 0 0 1 11092.1 6801)">-</text><text font-family="Times New Roman,Times New Roman_MSFontService,sans-serif" font-weight="400" font-size="367" transform="matrix(1 0 0 1 11214.2 6801)">extended to 16 bits for the adder</text><text font-family="Arial,Arial_MSFontService,sans-serif" font-weight="400" font-size="367" transform="matrix(1 0 0 1 8019 7329)">•</text><text fill="#EC5454" font-family="Consolas,Consolas_MSFontService,sans-serif" font-weight="400" font-size="367" transform="matrix(1 0 0 1 8420.04 7329)">Din</text><text fill="#EC5454" font-family="Consolas,Consolas_MSFontService,sans-serif" font-weight="400" font-size="367" transform="matrix(1 0 0 1 9025.04 7329)">[9:0]</text><text font-family="Times New Roman,Times New Roman_MSFontService,sans-serif" font-weight="400" font-size="367" transform="matrix(1 0 0 1 10125 7329)">is</text><text font-family="Times New Roman,Times New Roman_MSFontService,sans-serif" font-weight="400" font-size="367" transform="matrix(1 0 0 1 10461.3 7329)">zero</text><text font-family="Times New Roman,Times New Roman_MSFontService,sans-serif" font-weight="400" font-size="367" transform="matrix(1 0 0 1 11092.1 7329)">-</text><text font-family="Times New Roman,Times New Roman_MSFontService,sans-serif" font-weight="400" font-size="367" transform="matrix(1 0 0 1 11214.2 7329)">extended</text><text font-family="Times New Roman,Times New Roman_MSFontService,sans-serif" font-weight="400" font-size="367" transform="matrix(1 0 0 1 12629.3 7329)">to</text><text font-family="Times New Roman,Times New Roman_MSFontService,sans-serif" font-weight="400" font-size="367" transform="matrix(1 0 0 1 13006.2 7329)">17</text><text font-family="Times New Roman,Times New Roman_MSFontService,sans-serif" font-weight="400" font-size="367" transform="matrix(1 0 0 1 13464.6 7329)">bits</text><text font-family="Times New Roman,Times New Roman_MSFontService,sans-serif" font-weight="400" font-size="367" transform="matrix(1 0 0 1 14086.2 7329)">for</text><text font-family="Times New Roman,Times New Roman_MSFontService,sans-serif" font-weight="400" font-size="367" transform="matrix(1 0 0 1 14605.2 7329)">the</text><text font-family="Times New Roman,Times New Roman_MSFontService,sans-serif" font-weight="400" font-size="367" transform="matrix(1 0 0 1 15144.9 7329)">MUX</text></g></svg>