<svg width="3301" height="1980" xmlns="http://www.w3.org/2000/svg" xmlns:xlink="http://www.w3.org/1999/xlink" xml:space="preserve" overflow="hidden"><defs><clipPath id="clip0"><rect x="1439" y="65" width="3301" height="1980"/></clipPath><clipPath id="clip1"><rect x="1439" y="64" width="3300" height="1980"/></clipPath><clipPath id="clip2"><rect x="1681" y="264" width="3011" height="1514"/></clipPath><clipPath id="clip3"><rect x="1681" y="264" width="3011" height="1514"/></clipPath><clipPath id="clip4"><rect x="1681" y="264" width="3011" height="1514"/></clipPath><clipPath id="clip5"><rect x="1439" y="64" width="3300" height="1980"/></clipPath><clipPath id="clip6"><rect x="1439" y="64" width="3300" height="1980"/></clipPath><clipPath id="clip7"><rect x="1439" y="64" width="3300" height="1980"/></clipPath><clipPath id="clip8"><rect x="1439" y="64" width="3300" height="1980"/></clipPath><clipPath id="clip9"><rect x="1439" y="64" width="3300" height="1980"/></clipPath><clipPath id="clip10"><rect x="1439" y="64" width="3300" height="1980"/></clipPath><clipPath id="clip11"><rect x="1439" y="64" width="3300" height="1980"/></clipPath><clipPath id="clip12"><rect x="1439" y="64" width="3300" height="1980"/></clipPath><clipPath id="clip13"><rect x="1439" y="64" width="3300" height="1980"/></clipPath><clipPath id="clip14"><rect x="1439" y="64" width="3300" height="1980"/></clipPath><clipPath id="clip15"><rect x="1439" y="64" width="3300" height="1980"/></clipPath><clipPath id="clip16"><rect x="1439" y="64" width="3300" height="1980"/></clipPath><clipPath id="clip17"><rect x="1439" y="64" width="3300" height="1980"/></clipPath><clipPath id="clip18"><rect x="1439" y="64" width="3300" height="1980"/></clipPath><clipPath id="clip19"><rect x="1439" y="64" width="3300" height="1980"/></clipPath><clipPath id="clip20"><rect x="1439" y="64" width="3300" height="1980"/></clipPath><clipPath id="clip21"><rect x="1439" y="64" width="3300" height="1980"/></clipPath><clipPath id="clip22"><rect x="1439" y="64" width="3300" height="1980"/></clipPath><clipPath id="clip23"><rect x="1439" y="64" width="3300" height="1980"/></clipPath><clipPath id="clip24"><rect x="1439" y="64" width="3300" height="1980"/></clipPath><clipPath id="clip25"><rect x="1439" y="64" width="3300" height="1980"/></clipPath><clipPath id="clip26"><rect x="1439" y="64" width="3300" height="1980"/></clipPath><clipPath id="clip27"><rect x="1439" y="64" width="3300" height="1980"/></clipPath><clipPath id="clip28"><rect x="1439" y="64" width="3300" height="1980"/></clipPath><clipPath id="clip29"><rect x="1439" y="64" width="3300" height="1980"/></clipPath><clipPath id="clip30"><rect x="1439" y="64" width="3300" height="1980"/></clipPath><clipPath id="clip31"><rect x="1439" y="64" width="3300" height="1980"/></clipPath><clipPath id="clip32"><rect x="1439" y="64" width="3300" height="1980"/></clipPath></defs><g clip-path="url(#clip0)" transform="translate(-1439 -65)"><rect x="1440" y="65" width="3300" height="1980" fill="#FFFFFF"/><g clip-path="url(#clip1)"><path d="M1681.5 1559.55 4689.5 1559.55M1681.5 1343.54 4689.5 1343.54M1681.5 1127.54 4689.5 1127.54M1681.5 911.53 4689.5 911.53M1681.5 696.523 4689.5 696.523M1681.5 480.516 4689.5 480.516M1681.5 264.5 4689.5 264.5" stroke="#D9D9D9" stroke-width="3.4375" stroke-linejoin="round" stroke-miterlimit="10" fill="none"/></g><g clip-path="url(#clip2)"><path d="M1873.06 696.023 2048.07 696.023 2048.07 1775 1873.06 1775ZM2875.09 696.023 3050.1 696.023 3050.1 1775 2875.09 1775ZM3878.13 696.023 4053.13 696.023 4053.13 1775 3878.13 1775Z" fill="#ED7D31"/></g><g clip-path="url(#clip3)"><path d="M2095.07 696.023 2270.07 696.023 2270.07 1775 2095.07 1775ZM3098.1 496.016 3273.11 496.016 3273.11 1775 3098.1 1775ZM4100.13 704.023 4275.14 704.023 4275.14 1775 4100.13 1775Z" fill="#FFC000"/></g><g clip-path="url(#clip4)"><path d="M2317.08 696.023 2492.08 696.023 2492.08 1775 2317.08 1775ZM3320.11 517.017 3495.11 517.017 3495.11 1775 3320.11 1775ZM4323.14 707.023 4498.15 707.023 4498.15 1775 4323.14 1775Z" fill="#70AD47"/></g><g clip-path="url(#clip5)"><path d="M1681.5 1774.5 4689.5 1774.5" stroke="#D9D9D9" stroke-width="3.4375" stroke-linejoin="round" stroke-miterlimit="10" fill="none" fill-rule="evenodd"/></g><g clip-path="url(#clip6)"><text font-family="Times New Roman,Times New Roman_MSFontService,sans-serif" font-weight="400" font-size="55" transform="matrix(1 0 0 1 1884.77 663)">1.0000 </text></g><g clip-path="url(#clip7)"><text font-family="Times New Roman,Times New Roman_MSFontService,sans-serif" font-weight="400" font-size="55" transform="matrix(1 0 0 1 2887.43 663)">1.0000 </text></g><g clip-path="url(#clip8)"><text font-family="Times New Roman,Times New Roman_MSFontService,sans-serif" font-weight="400" font-size="55" transform="matrix(1 0 0 1 3890.1 663)">1.0000 </text></g><g clip-path="url(#clip9)"><text font-family="Times New Roman,Times New Roman_MSFontService,sans-serif" font-weight="400" font-size="55" transform="matrix(1 0 0 1 2107 663)">1.0000 </text></g><g clip-path="url(#clip10)"><text font-family="Times New Roman,Times New Roman_MSFontService,sans-serif" font-weight="400" font-size="55" transform="matrix(1 0 0 1 3109.67 463)">1.1857 </text></g><g clip-path="url(#clip11)"><text font-family="Times New Roman,Times New Roman_MSFontService,sans-serif" font-weight="400" font-size="55" transform="matrix(1 0 0 1 4112.33 671)">0.9927 </text></g><g clip-path="url(#clip12)"><text font-family="Times New Roman,Times New Roman_MSFontService,sans-serif" font-weight="400" font-size="55" transform="matrix(1 0 0 1 2329.23 663)">1.0000 </text></g><g clip-path="url(#clip13)"><text font-family="Times New Roman,Times New Roman_MSFontService,sans-serif" font-weight="400" font-size="55" transform="matrix(1 0 0 1 3331.9 484)">1.1660 </text></g><g clip-path="url(#clip14)"><text font-family="Times New Roman,Times New Roman_MSFontService,sans-serif" font-weight="400" font-size="55" transform="matrix(1 0 0 1 4334.56 674)">0.9899 </text></g><g clip-path="url(#clip15)"><text font-family="Times New Roman,Times New Roman_MSFontService,sans-serif" font-weight="400" font-size="55" transform="matrix(1 0 0 1 1469.5 1792)">0.0000</text></g><g clip-path="url(#clip16)"><text font-family="Times New Roman,Times New Roman_MSFontService,sans-serif" font-weight="400" font-size="55" transform="matrix(1 0 0 1 1469.5 1576)">0.2000</text></g><g clip-path="url(#clip17)"><text font-family="Times New Roman,Times New Roman_MSFontService,sans-serif" font-weight="400" font-size="55" transform="matrix(1 0 0 1 1469.5 1360)">0.4000</text></g><g clip-path="url(#clip18)"><text font-family="Times New Roman,Times New Roman_MSFontService,sans-serif" font-weight="400" font-size="55" transform="matrix(1 0 0 1 1469.5 1145)">0.6000</text></g><g clip-path="url(#clip19)"><text font-family="Times New Roman,Times New Roman_MSFontService,sans-serif" font-weight="400" font-size="55" transform="matrix(1 0 0 1 1469.5 929)">0.8000</text></g><g clip-path="url(#clip20)"><text font-family="Times New Roman,Times New Roman_MSFontService,sans-serif" font-weight="400" font-size="55" transform="matrix(1 0 0 1 1469.5 713)">1.0000</text></g><g clip-path="url(#clip21)"><text font-family="Times New Roman,Times New Roman_MSFontService,sans-serif" font-weight="400" font-size="55" transform="matrix(1 0 0 1 1469.5 498)">1.2000</text></g><g clip-path="url(#clip22)"><text font-family="Times New Roman,Times New Roman_MSFontService,sans-serif" font-weight="400" font-size="55" transform="matrix(1 0 0 1 1469.5 282)">1.4000</text></g><g clip-path="url(#clip23)"><text font-family="Times New Roman,Times New Roman_MSFontService,sans-serif" font-weight="400" font-size="73" transform="matrix(1 0 0 1 2056.35 1883)">Memory</text></g><g clip-path="url(#clip24)"><text font-family="Times New Roman,Times New Roman_MSFontService,sans-serif" font-weight="400" font-size="73" transform="matrix(1 0 0 1 3030.54 1883)">Frequency</text></g><g clip-path="url(#clip25)"><text font-family="Times New Roman,Times New Roman_MSFontService,sans-serif" font-weight="400" font-size="73" transform="matrix(1 0 0 1 4007.72 1883)">Total Power</text></g><g clip-path="url(#clip26)"><text font-family="Times New Roman,Times New Roman_MSFontService,sans-serif" font-weight="700" font-size="92" transform="matrix(1 0 0 1 2270.15 185)">Design Tradeoffs among CRA, CSA, CLA</text></g><g clip-path="url(#clip27)"><rect x="2249" y="1960" width="26.9998" height="26.9998" fill="#ED7D31"/></g><g clip-path="url(#clip28)"><text font-family="Times New Roman,Times New Roman_MSFontService,sans-serif" font-weight="400" font-size="55" transform="matrix(1 0 0 1 2288.09 1990)">Carry Ripple Adder</text></g><g clip-path="url(#clip29)"><rect x="2818" y="1960" width="27.9998" height="26.9998" fill="#FFC000"/></g><g clip-path="url(#clip30)"><text font-family="Times New Roman,Times New Roman_MSFontService,sans-serif" font-weight="400" font-size="55" transform="matrix(1 0 0 1 2857.74 1990)">Carry Select Adder</text></g><g clip-path="url(#clip31)"><rect x="3376" y="1960" width="27.0002" height="26.9998" fill="#70AD47"/></g><g clip-path="url(#clip32)"><text font-family="Times New Roman,Times New Roman_MSFontService,sans-serif" font-weight="400" font-size="55" transform="matrix(1 0 0 1 3415.11 1990)">Carry Lookahead Adder</text></g></g></svg>