<svg xmlns="http://www.w3.org/2000/svg" width="640" height="248">
<rect x="0" y="0" width="640" height="248" fill="#000000" />
<rect x="19" y="19" width="42" height="42" fill="#eeeeee" />
<rect x="20" y="20" width="40" height="40" fill="#000000" />
<rect x="75" y="19" width="42" height="42" fill="#eeeeee" />
<rect x="76" y="20" width="40" height="40" fill="#000000" />
<rect x="131" y="19" width="42" height="42" fill="#eeeeee" />
<rect x="132" y="20" width="40" height="40" fill="#000000" />
<rect x="187" y="19" width="42" height="42" fill="#eeeeee" />
<rect x="188" y="20" width="40" height="40" fill="#000000" />
<rect x="243" y="19" width="42" height="42" fill="#eeeeee" />
<rect x="244" y="20" width="40" height="40" fill="#000000" />
<rect x="299" y="19" width="42" height="42" fill="#eeeeee" />
<rect x="300" y="20" width="40" height="40" fill="#000000" />
<rect x="355" y="19" width="42" height="42" fill="#eeeeee" />
<rect x="356" y="20" width="40" height="40" fill="#000000" />
<rect x="411" y="19" width="42" height="42" fill="#eeeeee" />
<rect x="412" y="20" width="40" height="40" fill="#000000" />
<rect x="467" y="19" width="42" height="42" fill="#eeeeee" />
<rect x="468" y="20" width="40" height="40" fill="#000000" />
<rect x="523" y="19" width="42" height="42" fill="#eeeeee" />
<rect x="524" y="20" width="40" height="40" fill="#000000" />
<rect x="579" y="19" width="42" height="42" fill="#eeeeee" />
<rect x="580" y="20" width="40" height="40" fill="#000000" />
<rect x="47" y="75" width="42" height="42" fill="#eeeeee" />
<rect x="48" y="76" width="40" height="40" fill="#000000" />
<rect x="103" y="75" width="42" height="42" fill="#eeeeee" />
<rect x="104" y="76" width="40" height="40" fill="#000000" />
<rect x="159" y="75" width="42" height="42" fill="#eeeeee" />
<rect x="160" y="76" width="40" height="40" fill="#000000" />
<rect x="215" y="75" width="42" height="42" fill="#eeeeee" />
<rect x="216" y="76" width="40" height="40" fill="#000000" />
<rect x="271" y="75" width="42" height="42" fill="#eeeeee" />
<rect x="272" y="76" width="40" height="40" fill="#000000" />
<rect x="327" y="75" width="42" height="42" fill="#eeeeee" />
<rect x="328" y="76" width="40" height="40" fill="#000000" />
<rect x="383" y="75" width="42" height="42" fill="#eeeeee" />
<rect x="384" y="76" width="40" height="40" fill="#000000" />
<rect x="439" y="75" width="42" height="42" fill="#eeeeee" />
<rect x="440" y="76" width="40" height="40" fill="#000000" />
<rect x="495" y="75" width="42" height="42" fill="#eeeeee" />
<rect x="496" y="76" width="40" height="40" fill="#000000" />
<rect x="551" y="75" width="42" height="42" fill="#eeeeee" />
<rect x="552" y="76" width="40" height="40" fill="#000000" />
<rect x="75" y="131" width="42" height="42" fill="#eeeeee" />
<rect x="76" y="132" width="40" height="40" fill="#000000" />
<rect x="131" y="131" width="42" height="42" fill="#eeeeee" />
<rect x="132" y="132" width="40" height="40" fill="#000000" />
<rect x="187" y="131" width="42" height="42" fill="#eeeeee" />
<rect x="188" y="132" width="40" height="40" fill="#000000" />
<rect x="243" y="131" width="42" height="42" fill="#eeeeee" />
<rect x="244" y="132" width="40" height="40" fill="#000000" />
<rect x="299" y="131" width="42" height="42" fill="#eeeeee" />
<rect x="300" y="132" width="40" height="40" fill="#000000" />
<rect x="355" y="131" width="42" height="42" fill="#eeeeee" />
<rect x="356" y="132" width="40" height="40" fill="#000000" />
<rect x="411" y="131" width="42" height="42" fill="#eeeeee" />
<rect x="412" y="132" width="40" height="40" fill="#000000" />
<rect x="467" y="131" width="42" height="42" fill="#eeeeee" />
<rect x="468" y="132" width="40" height="40" fill="#000000" />
<rect x="523" y="131" width="42" height="42" fill="#eeeeee" />
<rect x="524" y="132" width="40" height="40" fill="#000000" />
<rect x="103" y="187" width="42" height="42" fill="#eeeeee" />
<rect x="104" y="188" width="40" height="40" fill="#000000" />
<rect x="159" y="187" width="42" height="42" fill="#eeeeee" />
<rect x="160" y="188" width="40" height="40" fill="#000000" />
<rect x="215" y="187" width="42" height="42" fill="#eeeeee" />
<rect x="216" y="188" width="40" height="40" fill="#000000" />
<rect x="271" y="187" width="42" height="42" fill="#eeeeee" />
<rect x="272" y="188" width="40" height="40" fill="#000000" />
<rect x="327" y="187" width="42" height="42" fill="#eeeeee" />
<rect x="328" y="188" width="40" height="40" fill="#000000" />
<rect x="383" y="187" width="42" height="42" fill="#eeeeee" />
<rect x="384" y="188" width="40" height="40" fill="#000000" />
<rect x="439" y="187" width="42" height="42" fill="#eeeeee" />
<rect x="440" y="188" width="40" height="40" fill="#000000" />
<rect x="495" y="187" width="42" height="42" fill="#eeeeee" />
<rect x="496" y="188" width="40" height="40" fill="#000000" />
<text x="27" y="47" font-family="Consolas" font-size="24" fill="#777777">31</text>
<text x="83" y="47" font-family="Consolas" font-size="24" fill="#777777">32</text>
<text x="139" y="47" font-family="Consolas" font-size="24" fill="#777777">33</text>
<text x="195" y="47" font-family="Consolas" font-size="24" fill="#777777">34</text>
<text x="251" y="47" font-family="Consolas" font-size="24" fill="#777777">35</text>
<text x="307" y="47" font-family="Consolas" font-size="24" fill="#777777">36</text>
<text x="363" y="47" font-family="Consolas" font-size="24" fill="#777777">37</text>
<text x="419" y="47" font-family="Consolas" font-size="24" fill="#777777">38</text>
<text x="475" y="47" font-family="Consolas" font-size="24" fill="#777777">39</text>
<text x="531" y="47" font-family="Consolas" font-size="24" fill="#777777">45</text>
<text x="587" y="47" font-family="Consolas" font-size="24" fill="#777777">46</text>
<text x="55" y="103" font-family="Consolas" font-size="24" fill="#777777">26</text>
<text x="118" y="103" font-family="Consolas" font-size="24" fill="#777777">8</text>
<text x="167" y="103" font-family="Consolas" font-size="24" fill="#777777">21</text>
<text x="223" y="103" font-family="Consolas" font-size="24" fill="#777777">23</text>
<text x="279" y="103" font-family="Consolas" font-size="24" fill="#777777">28</text>
<text x="335" y="103" font-family="Consolas" font-size="24" fill="#777777">24</text>
<text x="391" y="103" font-family="Consolas" font-size="24" fill="#777777">12</text>
<text x="447" y="103" font-family="Consolas" font-size="24" fill="#777777">18</text>
<text x="503" y="103" font-family="Consolas" font-size="24" fill="#777777">19</text>
<text x="559" y="103" font-family="Consolas" font-size="24" fill="#777777">47</text>
<text x="83" y="159" font-family="Consolas" font-size="24" fill="#777777">22</text>
<text x="146" y="159" font-family="Consolas" font-size="24" fill="#777777">7</text>
<text x="202" y="159" font-family="Consolas" font-size="24" fill="#777777">9</text>
<text x="251" y="159" font-family="Consolas" font-size="24" fill="#777777">10</text>
<text x="307" y="159" font-family="Consolas" font-size="24" fill="#777777">11</text>
<text x="363" y="159" font-family="Consolas" font-size="24" fill="#777777">13</text>
<text x="419" y="159" font-family="Consolas" font-size="24" fill="#777777">14</text>
<text x="475" y="159" font-family="Consolas" font-size="24" fill="#777777">15</text>
<text x="531" y="159" font-family="Consolas" font-size="24" fill="#777777">51</text>
<text x="111" y="215" font-family="Consolas" font-size="24" fill="#777777">27</text>
<text x="174" y="215" font-family="Consolas" font-size="24" fill="#777777">6</text>
<text x="223" y="215" font-family="Consolas" font-size="24" fill="#777777">25</text>
<text x="286" y="215" font-family="Consolas" font-size="24" fill="#777777">5</text>
<text x="335" y="215" font-family="Consolas" font-size="24" fill="#777777">17</text>
<text x="391" y="215" font-family="Consolas" font-size="24" fill="#777777">16</text>
<text x="447" y="215" font-family="Consolas" font-size="24" fill="#777777">54</text>
<text x="503" y="215" font-family="Consolas" font-size="24" fill="#777777">55</text>
</svg>
