<svg xmlns="http://www.w3.org/2000/svg" width="840" height="112">
<rect x="0" y="0" width="840" height="112" fill="#000000" />
<rect x="7" y="7" width="42" height="42" fill="#eeeeee" />
<rect x="8" y="8" width="40" height="40" fill="#000000" />
<rect x="63" y="7" width="42" height="42" fill="#eeeeee" />
<rect x="64" y="8" width="40" height="40" fill="#000000" />
<rect x="81" y="25" width="6" height="6" fill="#eeeeee" />
<rect x="119" y="7" width="42" height="42" fill="#eeeeee" />
<rect x="120" y="8" width="40" height="40" fill="#000000" />
<rect x="134" y="22" width="12" height="12" fill="#eeeeee" />
<rect x="175" y="7" width="42" height="42" fill="#eeeeee" />
<rect x="176" y="8" width="40" height="40" fill="#000000" />
<rect x="187" y="19" width="18" height="18" fill="#eeeeee" />
<rect x="231" y="7" width="42" height="42" fill="#eeeeee" />
<rect x="232" y="8" width="40" height="40" fill="#000000" />
<rect x="240" y="16" width="24" height="24" fill="#eeeeee" />
<rect x="287" y="7" width="42" height="42" fill="#eeeeee" />
<rect x="288" y="8" width="40" height="40" fill="#000000" />
<rect x="293" y="13" width="30" height="30" fill="#eeeeee" />
<rect x="343" y="7" width="42" height="42" fill="#eeeeee" />
<rect x="344" y="8" width="40" height="40" fill="#000000" />
<rect x="346" y="10" width="36" height="36" fill="#eeeeee" />
<rect x="399" y="7" width="42" height="42" fill="#eeeeee" />
<rect x="455" y="7" width="42" height="42" fill="#eeeeee" />
<rect x="456" y="8" width="40" height="40" fill="#cccccc" />
<rect x="511" y="7" width="42" height="42" fill="#eeeeee" />
<rect x="512" y="8" width="40" height="40" fill="#aaaaaa" />
<rect x="567" y="7" width="42" height="42" fill="#eeeeee" />
<rect x="568" y="8" width="40" height="40" fill="#888888" />
<rect x="623" y="7" width="42" height="42" fill="#eeeeee" />
<rect x="624" y="8" width="40" height="40" fill="#666666" />
<rect x="679" y="7" width="42" height="42" fill="#eeeeee" />
<rect x="680" y="8" width="40" height="40" fill="#444444" />
<rect x="735" y="7" width="42" height="42" fill="#eeeeee" />
<rect x="736" y="8" width="40" height="40" fill="#222222" />
<rect x="791" y="7" width="42" height="42" fill="#eeeeee" />
<rect x="792" y="8" width="40" height="40" fill="#000000" />
<rect x="3" y="59" width="50" height="50" fill="#eeeeee" />
<rect x="8" y="64" width="40" height="40" fill="#000000" />
<rect x="59" y="59" width="50" height="50" fill="#7777ee" />
<rect x="63" y="63" width="42" height="42" fill="#eeeeee" />
<rect x="64" y="64" width="40" height="40" fill="#000000" />
<rect x="81" y="81" width="6" height="6" fill="#7777ee" />
<rect x="115" y="59" width="50" height="50" fill="#7777ee" />
<rect x="119" y="63" width="42" height="42" fill="#eeeeee" />
<rect x="120" y="64" width="40" height="40" fill="#000000" />
<rect x="134" y="78" width="12" height="12" fill="#7777ee" />
<rect x="171" y="59" width="50" height="50" fill="#7777ee" />
<rect x="175" y="63" width="42" height="42" fill="#eeeeee" />
<rect x="176" y="64" width="40" height="40" fill="#000000" />
<rect x="187" y="75" width="18" height="18" fill="#7777ee" />
<rect x="227" y="59" width="50" height="50" fill="#7777ee" />
<rect x="231" y="63" width="42" height="42" fill="#eeeeee" />
<rect x="232" y="64" width="40" height="40" fill="#000000" />
<rect x="240" y="72" width="24" height="24" fill="#7777ee" />
<rect x="283" y="59" width="50" height="50" fill="#77ee77" />
<rect x="287" y="63" width="42" height="42" fill="#eeeeee" />
<rect x="288" y="64" width="40" height="40" fill="#000000" />
<rect x="293" y="69" width="30" height="30" fill="#77ee77" />
<rect x="339" y="59" width="50" height="50" fill="#77ee77" />
<rect x="343" y="63" width="42" height="42" fill="#eeeeee" />
<rect x="344" y="64" width="40" height="40" fill="#000000" />
<rect x="346" y="66" width="36" height="36" fill="#77ee77" />
<rect x="395" y="59" width="50" height="50" fill="#77ee77" />
<rect x="399" y="63" width="42" height="42" fill="#eeeeee" />
<rect x="400" y="64" width="40" height="40" fill="#77ee77" />
<rect x="451" y="59" width="50" height="50" fill="#77ee77" />
<rect x="455" y="63" width="42" height="42" fill="#eeeeee" />
<rect x="456" y="64" width="40" height="40" fill="#66cc66" />
<rect x="507" y="59" width="50" height="50" fill="#77ee77" />
<rect x="511" y="63" width="42" height="42" fill="#eeeeee" />
<rect x="512" y="64" width="40" height="40" fill="#55aa55" />
<rect x="563" y="59" width="50" height="50" fill="#7777ee" />
<rect x="567" y="63" width="42" height="42" fill="#eeeeee" />
<rect x="568" y="64" width="40" height="40" fill="#444488" />
<rect x="619" y="59" width="50" height="50" fill="#7777ee" />
<rect x="623" y="63" width="42" height="42" fill="#eeeeee" />
<rect x="624" y="64" width="40" height="40" fill="#333366" />
<rect x="675" y="59" width="50" height="50" fill="#7777ee" />
<rect x="679" y="63" width="42" height="42" fill="#eeeeee" />
<rect x="680" y="64" width="40" height="40" fill="#222244" />
<rect x="731" y="59" width="50" height="50" fill="#7777ee" />
<rect x="735" y="63" width="42" height="42" fill="#eeeeee" />
<rect x="736" y="64" width="40" height="40" fill="#111122" />
<rect x="791" y="63" width="42" height="42" fill="#eeeeee" />
<rect x="792" y="64" width="40" height="40" fill="#000000" />
<rect x="794" y="66" width="36" height="36" fill="#ee7777" />
</svg>
